<?xml version="1.0" standalone="no"?>
<!DOCTYPE svg PUBLIC "-//W3C//DTD SVG 20010904//EN"
 "http://www.w3.org/TR/2001/REC-SVG-20010904/DTD/svg10.dtd">
<svg version="1.0" xmlns="http://www.w3.org/2000/svg"
 width="335.000000pt" height="309.000000pt" viewBox="0 0 335.000000 309.000000"
 preserveAspectRatio="xMidYMid meet">

<g transform="translate(0.000000,309.000000) scale(0.100000,-0.100000)"
fill="#000000" stroke="none">
<path d="M1009 2288 c-51 -68 -96 -128 -100 -134 -5 -6 28 -37 89 -82 53 -40
101 -72 105 -73 7 0 69 76 92 113 6 9 33 45 62 81 l51 65 -31 29 c-18 17 -40
42 -50 57 -11 15 -25 25 -32 22 -8 -3 -30 6 -50 20 -20 13 -38 24 -40 24 -2 0
-46 -55 -96 -122z m155 57 c27 -25 54 -45 60 -45 12 -1 56 -35 56 -44 0 -4
-39 -58 -86 -121 l-86 -114 -66 52 c-37 28 -77 59 -89 68 l-22 16 87 117 c47
64 89 116 92 116 3 0 27 -20 54 -45z"/>
<path d="M676 2340 c-33 -10 -85 -66 -86 -92 0 -27 50 -145 67 -160 14 -12 15
-11 5 9 -7 12 -12 30 -12 41 0 11 -7 22 -15 26 -16 6 -20 41 -6 50 5 4 14 -6
19 -21 l9 -28 10 35 c8 29 13 35 34 32 14 -2 44 1 68 7 41 9 42 8 56 -22 l13
-32 1 29 c1 24 3 27 16 16 19 -15 19 -25 1 -42 -7 -8 -15 -33 -18 -56 -5 -55
13 -37 37 36 12 39 15 68 10 107 -6 52 -8 55 -43 65 -44 12 -125 12 -166 0z"/>
<path d="M2593 2319 c-15 -15 -17 -67 -4 -101 9 -23 13 -24 115 -23 75 0 106
-3 106 -12 0 -26 18 -21 33 9 16 34 13 58 -8 58 -8 0 -17 9 -20 21 -9 28 -64
49 -144 56 -47 3 -70 1 -78 -8z"/>
<path d="M1432 2283 c-43 -21 -73 -61 -111 -146 -36 -80 -41 -116 -12 -78 l19
25 -5 -46 c-5 -41 -2 -50 21 -73 l26 -26 -19 -67 c-32 -112 -34 -128 -15 -167
13 -29 15 -51 10 -108 -17 -186 -19 -219 -9 -225 5 -4 14 -175 22 -412 8 -269
15 -407 23 -411 9 -6 68 -2 75 5 1 0 9 120 18 266 16 257 23 336 29 329 2 -2
12 -134 21 -294 13 -201 22 -293 31 -300 6 -6 25 -10 40 -10 24 2 30 7 36 36
3 19 11 203 17 409 7 234 15 376 21 378 11 4 13 74 4 109 -4 13 -10 20 -15 17
-8 -5 -58 43 -59 57 0 4 12 18 26 32 21 21 25 32 19 57 -5 21 -1 43 11 68 18
39 16 56 -32 221 -6 20 -4 23 10 18 12 -5 27 2 47 22 33 34 38 79 15 133 -8
18 -18 50 -21 71 -15 94 -151 155 -243 110z m152 -125 c40 -47 43 -53 21 -62
-9 -3 -15 -18 -15 -34 0 -18 -10 -39 -24 -53 -20 -21 -25 -38 -31 -120 -4 -53
-11 -102 -15 -108 -6 -10 -31 95 -43 179 -2 8 -15 27 -30 42 -17 17 -27 38
-27 56 0 17 -6 32 -15 36 -8 3 -15 10 -15 15 0 10 39 27 54 22 5 -1 12 3 16 9
8 12 71 59 82 60 3 0 23 -19 42 -42z"/>
<path d="M1450 2105 c0 -8 5 -15 10 -15 6 0 10 7 10 15 0 8 -4 15 -10 15 -5 0
-10 -7 -10 -15z"/>
<path d="M1535 2111 c-6 -11 9 -23 19 -14 9 9 7 23 -3 23 -6 0 -12 -4 -16 -9z"/>
<path d="M1488 2023 c6 -2 18 -2 25 0 6 3 1 5 -13 5 -14 0 -19 -2 -12 -5z"/>
<path d="M2120 2198 c0 -36 4 -35 14 5 4 16 2 27 -4 27 -5 0 -10 -14 -10 -32z"/>
<path d="M2310 2220 c0 -6 7 -10 15 -10 8 0 15 2 15 4 0 2 -7 6 -15 10 -8 3
-15 1 -15 -4z"/>
<path d="M686 2211 c-4 -5 3 -7 14 -4 23 6 26 13 6 13 -8 0 -17 -4 -20 -9z"/>
<path d="M778 2213 c6 -2 18 -2 25 0 6 3 1 5 -13 5 -14 0 -19 -2 -12 -5z"/>
<path d="M2078 2203 c7 -3 16 -2 19 1 4 3 -2 6 -13 5 -11 0 -14 -3 -6 -6z"/>
<path d="M696 2192 c-3 -6 -1 -14 5 -17 15 -10 25 3 12 16 -7 7 -13 7 -17 1z"/>
<path d="M780 2185 c0 -8 5 -15 10 -15 6 0 10 7 10 15 0 8 -4 15 -10 15 -5 0
-10 -7 -10 -15z"/>
<path d="M1938 2175 c2 -14 8 -25 13 -25 5 0 9 11 9 25 0 14 -6 25 -14 25 -9
0 -12 -8 -8 -25z"/>
<path d="M1988 2193 c6 -2 18 -2 25 0 6 3 1 5 -13 5 -14 0 -19 -2 -12 -5z"/>
<path d="M1880 2178 c0 -16 56 -114 69 -122 5 -4 2 13 -7 36 -9 24 -22 47 -29
51 -7 4 -13 17 -13 27 0 11 -4 20 -10 20 -5 0 -10 -6 -10 -12z"/>
<path d="M2080 2175 c0 -8 5 -15 10 -15 6 0 10 7 10 15 0 8 -4 15 -10 15 -5 0
-10 -7 -10 -15z"/>
<path d="M1993 2165 c0 -8 4 -15 9 -15 4 0 8 7 8 15 0 8 -4 15 -8 15 -5 0 -9
-7 -9 -15z"/>
<path d="M2648 2163 c6 -2 18 -2 25 0 6 3 1 5 -13 5 -14 0 -19 -2 -12 -5z"/>
<path d="M2728 2163 c6 -2 18 -2 25 0 6 3 1 5 -13 5 -14 0 -19 -2 -12 -5z"/>
<path d="M2650 2135 c0 -8 5 -15 10 -15 6 0 10 7 10 15 0 8 -4 15 -10 15 -5 0
-10 -7 -10 -15z"/>
<path d="M2736 2141 c-4 -7 -5 -15 -2 -18 9 -9 19 4 14 18 -4 11 -6 11 -12 0z"/>
<path d="M738 2093 c6 -2 18 -2 25 0 6 3 1 5 -13 5 -14 0 -19 -2 -12 -5z"/>
<path d="M2038 2083 c6 -2 18 -2 25 0 6 3 1 5 -13 5 -14 0 -19 -2 -12 -5z"/>
<path d="M2684 2048 c10 -6 22 -6 26 -2 5 5 -3 10 -18 11 -22 1 -24 0 -8 -9z"/>
<path d="M2005 2003 c22 -35 77 -83 88 -76 10 6 9 103 -2 103 -5 0 -11 -9 -14
-20 -3 -12 -14 -20 -26 -20 -11 0 -25 9 -31 20 -6 11 -16 20 -22 20 -6 0 -3
-12 7 -27z"/>
<path d="M2189 1960 c14 -27 28 -50 31 -50 3 0 28 23 55 50 l49 50 -81 0 -81
0 27 -50z"/>
<path d="M1882 1993 c-7 -3 -40 -37 -72 -76 l-58 -71 40 -53 c40 -53 46 -83
25 -133 -4 -9 2 -21 17 -32 22 -16 24 -16 45 13 l22 29 -31 44 c-31 42 -31 45
-15 69 9 14 28 33 42 42 40 27 57 79 43 132 -12 42 -24 50 -58 36z"/>
<path d="M2635 1968 c10 -33 40 -73 58 -76 18 -4 57 52 57 81 0 21 -13 22 -30
2 -7 -8 -18 -15 -25 -15 -7 0 -18 7 -25 15 -20 24 -43 19 -35 -7z"/>
<path d="M2484 1928 c-53 -47 -134 -157 -134 -183 0 -25 41 -85 92 -133 l35
-33 22 27 c20 25 20 29 6 51 -50 77 -49 66 -7 114 61 70 73 103 56 167 -9 30
-27 28 -70 -10z"/>
<path d="M2836 1944 c-20 -53 1 -118 59 -183 l34 -38 -30 -41 c-30 -41 -30
-42 -13 -72 10 -16 21 -30 24 -30 3 0 26 21 52 48 44 45 78 99 78 123 0 17
-96 143 -136 178 -39 34 -59 39 -68 15z"/>
<path d="M708 1483 l-3 -57 -64 3 -63 3 6 -84 c3 -46 8 -193 11 -328 3 -135 8
-296 11 -357 l6 -113 43 0 44 0 5 53 c4 28 11 117 16 197 11 149 47 470 53
476 2 2 16 -65 31 -148 27 -151 27 -156 17 -357 -6 -112 -11 -208 -11 -212 0
-5 20 -9 45 -9 53 0 45 -23 81 237 l26 192 -16 206 c-9 113 -16 216 -16 229 0
23 -2 24 -60 19 l-60 -6 0 57 0 56 -50 0 -49 0 -3 -57z"/>
<path d="M1900 1493 c0 -10 5 -137 10 -282 8 -213 16 -297 40 -440 17 -97 33
-186 35 -198 5 -20 12 -23 52 -23 l46 0 -6 83 c-18 231 -20 344 -7 468 7 71
16 126 20 122 10 -11 28 -260 36 -485 l6 -188 44 0 c41 0 43 2 48 33 13 84 26
418 26 660 l0 267 -175 0 c-160 0 -175 -1 -175 -17z"/>
<path d="M2519 1341 c0 -36 -6 -136 -13 -221 -12 -151 -12 -161 16 -360 15
-113 28 -208 28 -212 0 -5 20 -8 45 -8 53 0 50 -25 35 243 -10 172 -9 184 16
320 14 78 27 143 29 145 8 8 39 -269 55 -478 6 -80 13 -164 16 -187 5 -43 5
-43 48 -43 l42 0 13 426 c7 234 11 427 9 429 -2 1 -78 5 -170 7 l-168 5 -1
-66z"/>
<path d="M602 483 c-15 -12 -34 -22 -42 -23 -20 0 -40 -19 -40 -37 0 -10 23
-13 91 -13 l90 0 -3 47 c-3 45 -4 46 -36 47 -20 1 -43 -8 -60 -21z"/>
<path d="M843 503 c-13 -2 -23 -10 -23 -17 0 -8 -3 -28 -6 -45 l-6 -31 91 0
c83 0 91 2 91 19 0 12 -9 23 -22 27 -13 4 -39 17 -58 30 -19 13 -37 23 -40 23
-3 -1 -15 -4 -27 -6z"/>
<path d="M1985 483 c-19 -13 -40 -23 -47 -23 -18 0 -38 -20 -38 -37 0 -10 23
-13 90 -13 l90 0 0 44 c0 41 -2 44 -30 48 -21 3 -41 -3 -65 -19z"/>
<path d="M2163 502 c-17 -2 -22 -11 -25 -43 -2 -22 -2 -42 1 -45 6 -6 181 -5
181 2 0 16 -23 44 -36 44 -9 0 -30 10 -47 22 -34 24 -40 26 -74 20z"/>
<path d="M1360 486 c-6 -8 -27 -20 -46 -26 -23 -8 -34 -18 -34 -31 0 -17 8
-19 85 -19 l85 0 0 45 0 45 -39 0 c-21 0 -44 -6 -51 -14z"/>
<path d="M1556 469 c-12 -60 -13 -59 84 -59 67 0 90 3 90 13 0 17 -20 37 -38
37 -8 0 -25 9 -39 20 -14 11 -40 20 -58 20 -28 0 -33 -4 -39 -31z"/>
<path d="M2539 482 c-13 -10 -36 -23 -51 -30 -16 -6 -28 -18 -28 -27 0 -12 16
-15 91 -15 l92 0 -7 31 c-3 17 -6 38 -6 45 0 20 -62 18 -91 -4z"/>
<path d="M2750 455 l0 -45 86 0 c74 0 85 2 82 16 -2 9 -12 22 -23 28 -11 5
-32 18 -47 28 -15 10 -43 18 -63 18 -35 0 -35 0 -35 -45z"/>
</g>
</svg>
