<?xml version="1.0" standalone="no"?>
<!DOCTYPE svg PUBLIC "-//W3C//DTD SVG 20010904//EN"
 "http://www.w3.org/TR/2001/REC-SVG-20010904/DTD/svg10.dtd">
<svg version="1.0" xmlns="http://www.w3.org/2000/svg"
 width="376.000000pt" height="304.000000pt" viewBox="0 0 376.000000 304.000000"
 preserveAspectRatio="xMidYMid meet">

<g transform="translate(0.000000,304.000000) scale(0.100000,-0.100000)"
fill="#000000" stroke="none">
<path d="M0 1520 l0 -1520 1880 0 1880 0 0 1520 0 1520 -1880 0 -1880 0 0
-1520z m1066 948 c25 5 26 4 9 -16 -21 -24 -45 -18 -44 12 0 11 3 16 5 10 3
-6 16 -9 30 -6z m1677 -24 c-3 -8 -9 -14 -13 -14 -13 0 -22 19 -15 30 9 14 34
0 28 -16z m-1617 -16 c-10 -6 -20 -7 -24 -3 -9 8 20 25 31 18 5 -3 2 -10 -7
-15z m1567 -11 c21 -3 21 -4 3 -12 -13 -6 -21 -5 -24 3 -2 7 -10 12 -18 12
-17 0 -19 17 -1 23 6 2 13 -2 15 -9 2 -7 13 -15 25 -17z m-1588 -6 c11 -5 30
-4 43 0 17 7 27 4 43 -12 11 -11 40 -33 64 -48 40 -25 160 -127 204 -172 118
-122 208 -243 260 -349 87 -178 111 -286 111 -492 0 -83 -4 -167 -9 -187 -5
-20 -17 -70 -26 -111 -15 -66 -75 -230 -110 -297 -18 -33 -26 -16 -33 66 -3
43 -11 74 -23 90 -11 13 -19 28 -19 33 0 20 -48 72 -95 102 -68 43 -122 64
-230 87 -49 10 -116 25 -148 34 -32 8 -66 15 -75 15 -45 0 -295 94 -390 147
-26 14 -56 31 -67 37 -11 6 -22 14 -25 17 -3 3 -15 12 -28 21 -58 39 -104 91
-98 110 3 12 -3 29 -15 41 -16 18 -19 18 -19 4 0 -9 5 -17 10 -17 6 0 10 -10
10 -22 -1 -21 -3 -20 -29 12 -33 39 -31 65 5 56 27 -7 33 8 8 18 -9 3 -14 15
-12 28 4 28 28 36 28 10 0 -11 -6 -22 -12 -24 -7 -3 -2 -7 10 -10 14 -4 22 -2
22 6 0 6 10 12 23 13 12 1 47 5 77 9 30 4 58 7 63 6 4 -1 7 2 7 7 0 4 11 6 25
4 25 -5 115 32 115 48 0 5 9 9 20 9 11 0 20 -6 20 -12 0 -10 3 -9 9 1 5 7 14
10 21 6 18 -11 51 25 44 48 -5 15 -3 19 9 14 11 -4 14 -2 11 8 -4 10 0 12 15
8 43 -11 11 23 -44 47 -30 13 -55 28 -55 32 0 4 -12 14 -27 22 -16 8 -37 28
-48 45 -11 16 -29 32 -41 35 -22 6 -42 48 -21 45 26 -3 35 2 40 21 3 14 14 20
32 20 21 0 25 4 21 18 -5 13 7 25 49 50 30 18 55 38 55 43 0 6 -8 5 -20 -1
-19 -10 -20 -10 -8 10 7 11 21 23 30 26 10 3 18 12 18 20 0 8 5 14 10 14 6 0
10 7 8 16 -2 10 3 19 10 21 6 3 12 0 12 -6 0 -6 5 -11 10 -11 6 0 10 7 10 15
0 8 7 15 15 15 8 0 20 10 26 23 15 27 30 38 47 32 7 -3 12 5 12 19 0 16 7 26
21 29 23 6 17 27 -7 27 -8 0 -12 5 -9 10 7 12 12 12 40 1z m1545 -6 c15 -8 30
-20 33 -27 3 -10 9 -9 24 5 11 9 24 17 29 17 5 0 3 -4 -5 -9 -8 -5 -11 -16 -7
-29 8 -24 40 -62 53 -62 32 0 65 -29 80 -71 13 -36 21 -45 35 -41 10 2 29 1
43 -2 20 -5 25 -13 25 -36 0 -16 5 -32 10 -35 6 -3 10 -22 10 -41 0 -19 5 -34
10 -34 6 0 10 5 10 11 0 6 7 8 17 5 9 -4 20 -1 24 5 5 9 11 8 23 -4 12 -12 14
-22 6 -41 -9 -25 -8 -26 15 -20 14 3 25 2 25 -3 0 -13 -58 -61 -66 -54 -4 3
-4 1 0 -6 4 -7 -5 -19 -20 -30 -14 -10 -33 -26 -42 -35 -9 -10 -22 -18 -29
-18 -7 0 -23 -11 -35 -25 -12 -14 -29 -25 -37 -25 -18 0 -61 -47 -61 -67 0
-15 46 -18 55 -3 8 13 65 13 65 1 0 -6 -15 -12 -32 -14 -29 -3 -27 -4 10 -5
30 -2 42 -6 42 -17 0 -10 14 -17 40 -21 22 -4 40 -10 40 -14 0 -4 32 -11 70
-14 39 -4 70 -11 70 -16 0 -15 30 -19 77 -11 41 8 48 7 64 -12 l18 -22 7 33 7
33 15 -31 c14 -29 16 -30 33 -14 11 10 21 15 24 12 9 -9 -7 -38 -21 -38 -8 0
-14 -9 -14 -20 0 -33 -133 -157 -230 -213 -166 -97 -296 -146 -510 -192 -278
-59 -366 -91 -435 -161 -43 -42 -88 -136 -89 -181 0 -20 -3 -28 -8 -20 -11 17
-10 -1 2 -22 13 -25 22 -81 12 -81 -13 0 -98 190 -126 280 -74 243 -76 502 -6
710 26 79 84 199 124 260 56 85 190 236 272 307 115 98 208 173 217 173 4 0
21 -7 37 -15z m813 -715 c3 -11 1 -18 -4 -14 -5 3 -9 12 -9 20 0 20 7 17 13
-6z m-3143 -20 c0 -5 -2 -10 -4 -10 -3 0 -8 5 -11 10 -3 6 -1 10 4 10 6 0 11
-4 11 -10z m62 -22 c-3 -12 -7 -17 -10 -10 -5 15 -32 16 -32 0 0 -6 -3 -9 -6
-5 -13 13 6 37 30 37 20 0 23 -4 18 -22z m3028 1 c0 -11 -4 -17 -10 -14 -5 3
-10 13 -10 21 0 8 5 14 10 14 6 0 10 -9 10 -21z m-3027 -60 c-4 -16 -7 -16
-19 -4 -20 19 -17 34 5 28 12 -3 17 -11 14 -24z m1233 -886 c-7 -16 6 -17 22
-1 19 19 24 3 8 -26 -9 -19 -16 -23 -20 -14 -3 7 -3 3 -1 -8 3 -12 0 -34 -6
-50 -25 -67 -81 -418 -76 -483 3 -43 -32 -53 -168 -47 -136 5 -218 26 -324 83
-89 48 -121 72 -121 89 0 8 -4 14 -10 14 -5 0 -10 5 -10 12 0 6 -11 26 -25 44
-14 18 -25 36 -25 41 0 4 7 -1 16 -12 14 -19 15 -19 40 8 13 15 33 27 42 27
47 0 97 44 70 61 -9 6 -7 10 7 15 29 11 44 29 48 56 3 15 12 24 26 26 24 4 61
-23 61 -44 0 -6 14 -17 30 -23 17 -5 30 -17 30 -25 0 -9 8 -16 19 -16 10 0 21
-9 24 -21 5 -18 8 -19 29 -8 34 17 58 40 58 56 0 8 9 24 21 36 20 22 21 22 35
3 14 -20 14 -20 29 0 10 13 14 15 15 5 0 -8 10 -2 22 14 14 18 23 47 26 81 4
45 8 54 23 54 15 0 18 5 13 24 -3 13 -1 27 4 30 17 10 22 -9 12 -43 -7 -26 -6
-33 8 -38 9 -4 20 -11 24 -17 4 -6 8 12 8 41 0 33 -5 57 -15 67 -8 8 -15 19
-15 25 0 6 -4 11 -10 11 -5 0 -10 5 -10 11 0 5 16 -2 35 -17 21 -15 34 -33 31
-41z m600 36 c10 -17 -13 -36 -27 -22 -12 12 -4 33 11 33 5 0 12 -5 16 -11z
m-36 -50 c0 -10 -6 -19 -12 -20 -10 0 -10 -2 0 -6 6 -2 12 -16 12 -29 0 -13 4
-24 9 -24 5 0 12 -8 14 -17 2 -10 2 -2 0 18 -6 49 21 74 31 28 5 -25 9 -29 26
-24 21 7 27 -4 10 -21 -15 -15 5 -64 26 -64 12 0 15 -6 10 -25 -4 -14 -2 -25
4 -25 5 0 10 8 10 19 0 23 22 42 37 33 7 -4 17 -20 22 -35 6 -16 15 -25 21
-22 5 3 10 0 10 -7 1 -19 59 -80 70 -73 6 3 10 14 10 23 1 20 34 62 49 62 6 0
11 -9 11 -20 0 -11 4 -20 8 -20 12 0 49 45 72 87 11 21 20 34 20 29 0 -5 7 -3
15 4 20 17 22 13 27 -35 3 -30 10 -43 26 -50 12 -5 22 -14 22 -20 0 -6 9 -17
20 -25 11 -8 20 -20 20 -28 0 -7 5 -10 10 -7 6 3 10 -1 10 -9 0 -8 6 -13 13
-10 7 2 21 -2 32 -10 17 -12 17 -16 6 -30 -10 -12 -11 -20 -3 -28 7 -7 18 2
37 31 15 22 34 41 41 41 21 0 17 -14 -15 -47 -16 -17 -32 -44 -35 -59 -11 -47
-143 -128 -291 -176 -68 -22 -275 -36 -315 -20 -23 9 -25 17 -41 143 -9 74
-23 168 -30 209 -7 41 -13 98 -12 125 0 28 -1 44 -4 37 -7 -18 -23 -4 -23 22
0 12 -5 27 -10 32 -7 7 -7 21 1 42 12 34 29 34 29 1z"/>
<path d="M1200 2326 c0 -9 7 -16 16 -16 17 0 14 22 -4 28 -7 2 -12 -3 -12 -12z"/>
<path d="M3355 1550 c3 -5 11 -10 16 -10 6 0 7 5 4 10 -3 6 -11 10 -16 10 -6
0 -7 -4 -4 -10z"/>
<path d="M3235 1540 c3 -5 8 -10 11 -10 2 0 4 5 4 10 0 6 -5 10 -11 10 -5 0
-7 -4 -4 -10z"/>
<path d="M3290 1510 c0 -12 8 -12 35 0 18 8 17 9 -7 9 -16 1 -28 -3 -28 -9z"/>
<path d="M945 360 c3 -5 8 -10 11 -10 2 0 4 5 4 10 0 6 -5 10 -11 10 -5 0 -7
-4 -4 -10z"/>
<path d="M2510 426 c0 -32 16 -42 29 -18 7 13 7 22 -1 30 -19 19 -28 14 -28
-12z"/>
</g>
</svg>
