<?xml version="1.0" standalone="no"?>
<!DOCTYPE svg PUBLIC "-//W3C//DTD SVG 20010904//EN"
 "http://www.w3.org/TR/2001/REC-SVG-20010904/DTD/svg10.dtd">
<svg version="1.0" xmlns="http://www.w3.org/2000/svg"
 width="3670.000000pt" height="2457.000000pt" viewBox="0 0 3670.000000 2457.000000"
 preserveAspectRatio="xMidYMid meet">

<g transform="translate(0.000000,2457.000000) scale(0.100000,-0.100000)"
fill="#000000" stroke="none">
<path d="M0 12285 l0 -12285 18350 0 18350 0 0 12285 0 12285 -18350 0 -18350
0 0 -12285z m28248 9064 c-2 -6 -8 -10 -13 -10 -5 0 -11 4 -13 10 -2 6 4 11
13 11 9 0 15 -5 13 -11z m945 -110 c28 -6 87 -16 130 -23 43 -6 76 -15 75 -21
-3 -12 -111 -7 -116 5 -2 4 -11 6 -22 3 -19 -5 -258 24 -272 33 -42 26 85 28
205 3z m402 -59 c3 -5 -1 -10 -9 -10 -8 0 -18 5 -21 10 -3 6 1 10 9 10 8 0 18
-4 21 -10z m75 -10 c0 -5 -6 -10 -14 -10 -8 0 -18 5 -21 10 -3 6 3 10 14 10
12 0 21 -4 21 -10z m-660 -217 c25 -22 26 -43 2 -43 -10 0 -24 -6 -30 -12 -18
-18 -30 4 -24 42 5 34 22 38 52 13z m578 -84 c7 -12 11 -23 8 -26 -8 -9 -36
17 -36 33 0 20 13 17 28 -7z m-615 -401 c6 -3 9 -34 8 -71 l-2 -64 63 -20 c47
-16 64 -26 66 -41 4 -25 49 -42 79 -31 26 10 40 -5 24 -25 -17 -20 -3 -93 19
-99 13 -3 16 -12 12 -35 -5 -35 -25 -57 -43 -47 -7 5 -9 23 -5 49 5 38 3 43
-32 69 -32 25 -43 28 -87 24 -27 -3 -64 -13 -82 -22 -24 -12 -37 -13 -52 -6
-17 10 -18 19 -13 96 5 89 -6 113 -27 55 -5 -16 -15 -30 -20 -30 -18 0 -12 36
13 86 17 34 22 54 16 70 -12 30 -2 60 23 72 17 7 23 6 26 -7 2 -9 8 -19 14
-23z m-173 -177 c0 -12 -20 -25 -27 -18 -7 7 6 27 18 27 5 0 9 -4 9 -9z m-123
-17 c-3 -3 -12 -4 -19 -1 -8 3 -5 6 6 6 11 1 17 -2 13 -5z m627 -30 c13 -34 7
-56 -16 -52 -15 2 -23 11 -25 31 -3 18 0 26 7 22 5 -3 10 -1 10 4 0 17 17 13
24 -5z m146 -12 c0 -10 6 -27 14 -38 14 -18 15 -18 21 -1 5 11 1 25 -10 37
-16 18 -16 20 -2 20 9 0 19 -4 22 -10 3 -5 15 -10 26 -10 17 0 20 -5 15 -27
-3 -16 -8 -45 -12 -65 -8 -48 -58 -128 -80 -128 -13 0 -16 7 -11 34 4 23 1 39
-8 46 -8 7 -17 27 -21 46 -5 25 -11 34 -26 34 -10 0 -16 5 -13 10 3 6 -3 10
-14 10 -27 0 -35 17 -14 29 12 6 25 6 36 0 20 -12 37 -4 37 17 0 8 9 14 20 14
13 0 20 -7 20 -18z m-568 -68 c2 -20 -2 -48 -9 -62 -20 -37 -8 -132 16 -132
26 0 30 -8 18 -41 -12 -32 -31 -36 -70 -16 -21 11 -23 15 -11 23 16 10 28 110
14 119 -18 11 -22 83 -5 114 21 42 42 40 47 -5z m984 -31 c-10 -10 -19 5 -10
18 6 11 8 11 12 0 2 -7 1 -15 -2 -18z m-847 -34 c26 -9 51 -34 51 -52 0 -14
-33 -14 -60 -1 -24 13 -37 13 -62 5 -39 -14 -38 -14 -38 4 0 21 36 55 59 55
10 0 32 -5 50 -11z m169 -76 c5 -17 -26 -29 -40 -15 -6 6 -7 15 -3 22 9 14 37
9 43 -7z m204 -38 c-5 -41 -19 -45 -32 -10 -7 19 -6 30 7 45 21 24 30 11 25
-35z m497 9 c-18 -19 -42 -34 -53 -34 -17 0 -16 3 7 23 15 12 27 30 27 38 0
12 7 15 26 11 l25 -5 -32 -33z m-1124 -59 c29 -10 33 -14 17 -15 -29 0 -38
-24 -52 -146 -6 -54 -12 -99 -14 -101 -2 -2 -8 2 -13 9 -7 9 -6 32 3 73 7 33
13 90 13 128 1 37 2 67 4 67 1 0 20 -7 42 -15z m805 -20 c0 -28 -24 -34 -34
-9 -8 20 1 34 20 34 8 0 14 -10 14 -25z m-10 -155 c0 -10 -4 -22 -10 -25 -6
-4 -10 7 -10 25 0 18 4 29 10 25 6 -3 10 -15 10 -25z m20 -336 c0 -17 14 -18
38 -3 13 8 27 9 48 2 l29 -11 -29 -11 c-15 -6 -40 -12 -55 -13 -14 -1 -31 -5
-37 -10 -15 -11 -23 11 -17 45 5 27 23 28 23 1z m-1533 -670 c4 -11 -62 -36
-71 -26 -3 3 -6 14 -6 24 0 16 6 19 37 16 20 -2 38 -8 40 -14z m113 -56 c0
-13 -23 -5 -28 10 -2 7 2 10 12 6 9 -3 16 -11 16 -16z m-163 -24 c-9 -9 -28 6
-21 18 4 6 10 6 17 -1 6 -6 8 -13 4 -17z m20 -59 c3 -9 3 -19 -1 -22 -8 -9
-37 18 -30 28 8 14 24 11 31 -6z m411 -32 c23 -17 32 -31 29 -44 -3 -10 2 -27
10 -38 16 -23 11 -28 -9 -8 -43 40 -118 97 -118 89 0 -5 7 -15 15 -22 19 -16
19 -30 0 -30 -13 0 -55 54 -55 71 0 3 10 11 23 16 26 12 58 2 105 -34z m262
-155 c0 -6 -7 -5 -15 2 -8 7 -15 17 -15 22 0 6 7 5 15 -2 8 -7 15 -17 15 -22z
m-477 -5 c49 -34 66 -63 37 -63 -11 0 -20 5 -20 11 0 5 -15 16 -34 24 -38 16
-50 30 -41 45 9 15 15 13 58 -17z m271 -28 c36 -55 7 -84 -35 -35 -30 34 -34
42 -22 53 14 15 41 6 57 -18z m1436 -35 c0 -13 -7 -20 -19 -20 -22 0 -35 15
-26 30 12 19 45 11 45 -10z m-362 -18 c3 -9 -3 -13 -19 -10 -12 1 -24 9 -27
16 -3 9 3 13 19 10 12 -1 24 -9 27 -16z m398 -31 c-3 -4 -20 -6 -37 -3 -30 4
-31 6 -14 18 18 14 61 1 51 -15z m-1733 -21 c3 -11 1 -23 -4 -26 -5 -3 -9 6
-9 20 0 31 6 34 13 6z m-3 -66 c0 -31 -23 -28 -28 4 -2 15 2 22 12 22 11 0 16
-9 16 -26z m440 3 c0 -19 -10 -27 -26 -20 -21 8 -17 33 6 33 11 0 20 -6 20
-13z m1264 -25 c8 -13 -11 -35 -23 -28 -16 10 -14 36 3 36 8 0 17 -4 20 -8z
m-1388 -79 c-7 -7 -26 7 -26 19 0 6 6 6 15 -2 9 -7 13 -15 11 -17z m239 -33
c3 -6 -1 -7 -9 -4 -18 7 -21 14 -7 14 6 0 13 -4 16 -10z m-145 -66 c0 -7 -45
-4 -59 5 -27 17 -2 30 29 14 17 -8 30 -16 30 -19z m740 17 c0 -6 -4 -13 -10
-16 -5 -3 -10 1 -10 9 0 9 5 16 10 16 6 0 10 -4 10 -9z m-643 -27 c-3 -3 -12
-4 -19 -1 -8 3 -5 6 6 6 11 1 17 -2 13 -5z m492 -103 c8 -5 11 -16 6 -30 -8
-25 -53 -81 -66 -81 -13 0 -11 31 5 62 9 16 11 30 5 33 -5 4 -9 10 -9 16 0 11
40 12 59 0z m-354 -21 c11 -18 -17 -140 -33 -140 -23 0 -73 40 -84 69 -6 15
-12 21 -15 14 -5 -15 -29 -17 -37 -4 -14 21 7 41 43 41 20 0 45 7 55 15 22 17
62 20 71 5z m152 -36 c6 -15 7 -15 19 1 23 31 44 11 44 -43 0 -26 6 -54 12
-60 15 -15 -4 -32 -37 -32 -18 0 -17 -2 4 -13 14 -6 26 -18 29 -24 7 -23 -20
-13 -48 17 -15 17 -38 30 -50 30 -39 0 -57 17 -58 55 -2 58 13 85 48 85 19 0
33 -6 37 -16z m58 -285 c0 -7 -8 -15 -17 -17 -18 -3 -25 18 -11 32 10 10 28 1
28 -15z m-386 -40 c20 -16 26 -32 29 -78 3 -46 1 -59 -11 -64 -12 -4 -18 6
-28 45 -6 28 -18 63 -25 77 -8 14 -14 29 -14 34 0 13 25 7 49 -14z m-55 -51
c5 -9 7 -20 4 -23 -9 -10 -59 26 -52 37 9 13 35 6 48 -14z m683 -24 c3 -9 -2
-21 -15 -30 -13 -9 -18 -21 -15 -33 4 -15 -1 -22 -20 -26 -39 -10 -67 3 -67
30 0 12 6 26 13 29 6 3 26 15 42 25 37 24 54 26 62 5z m-739 -31 c3 -31 2 -33
-30 -33 -26 0 -36 6 -45 26 -17 36 -8 46 35 42 34 -3 37 -6 40 -35z m612 -63
c0 -15 -7 -20 -25 -20 -24 0 -34 18 -18 33 15 15 43 7 43 -13z m-550 -245 c0
-16 -12 -18 -47 -9 -35 10 -27 24 12 24 24 0 35 -5 35 -15z m67 -78 c-6 -19
-22 -6 -25 20 -2 27 -2 27 13 8 8 -10 14 -23 12 -28z m329 2 c12 -20 22 -79
13 -79 -9 0 -23 23 -39 64 -7 20 -6 26 5 26 7 0 17 -5 21 -11z m-461 -35 c26
-17 33 -34 13 -34 -14 0 -48 30 -48 42 0 12 8 10 35 -8z m323 -51 c15 -77 8
-92 -35 -77 -34 12 -40 30 -13 39 20 6 21 12 15 56 -5 38 -4 49 7 49 9 0 18
-23 26 -67z m-448 -67 c-13 -13 -35 7 -25 24 5 8 11 8 21 -1 10 -8 12 -15 4
-23z m705 -86 c-5 -8 -11 -8 -21 1 -12 10 -12 14 -2 20 16 10 33 -5 23 -21z
m-350 -22 c38 -17 33 -41 -7 -33 -34 8 -51 23 -42 37 7 11 19 10 49 -4z m342
-40 c-3 -8 -6 -5 -6 6 -1 11 2 17 5 13 3 -3 4 -12 1 -19z m2308 2 c3 -5 1 -10
-4 -10 -6 0 -11 5 -11 10 0 6 2 10 4 10 3 0 8 -4 11 -10z m-2840 -80 c0 -16
-50 -38 -61 -27 -11 11 28 48 45 45 9 -2 16 -10 16 -18z m602 -150 c3 -11 14
-20 25 -20 21 0 88 -60 88 -79 0 -6 -12 -11 -26 -11 -14 0 -23 4 -19 10 3 6
-1 10 -9 10 -9 0 -25 9 -36 20 -11 11 -29 19 -41 17 -18 -2 -22 4 -24 28 -1
17 0 33 2 38 8 15 35 6 40 -13z m-911 -22 c4 -6 0 -16 -9 -23 -9 -7 -14 -15
-10 -18 3 -4 1 -12 -5 -19 -5 -7 -13 -30 -17 -51 -6 -30 -15 -42 -44 -58 -59
-33 -115 -67 -126 -77 -6 -5 -29 -12 -50 -16 -43 -8 -95 -39 -162 -97 -29 -24
-57 -39 -85 -43 -48 -7 -123 -23 -181 -37 -31 -8 -38 -14 -35 -32 3 -20 19
-31 105 -70 l23 -10 -21 -11 c-12 -6 -21 -15 -20 -19 1 -5 -5 -14 -15 -21 -12
-9 -17 -30 -19 -72 -1 -32 -5 -71 -10 -87 -5 -19 -2 -35 9 -52 20 -30 20 -35
1 -35 -8 0 -15 -7 -15 -15 0 -8 5 -15 10 -15 6 0 10 -13 10 -28 0 -15 5 -33
11 -39 19 -19 2 -46 -25 -39 -20 5 -24 2 -29 -27 -6 -40 3 -126 14 -133 4 -2
13 5 19 16 8 15 17 19 35 14 15 -4 25 -2 25 5 0 18 63 12 98 -9 26 -16 33 -27
31 -48 -1 -15 1 -39 5 -53 5 -18 1 -37 -15 -65 -24 -43 -69 -90 -81 -87 -5 2
-8 0 -8 -5 0 -4 17 -16 38 -27 38 -21 64 -17 95 14 16 16 34 14 66 -10 27 -19
31 -20 51 -6 15 10 31 12 55 7 34 -8 35 -7 44 29 34 132 41 163 41 182 0 12 5
19 13 16 9 -3 12 -36 10 -128 -1 -98 -7 -142 -27 -213 -14 -49 -30 -94 -35
-99 -6 -6 -40 -11 -75 -12 -61 0 -97 -12 -68 -22 17 -7 15 -40 -4 -47 -26 -10
-37 4 -31 40 7 45 -16 46 -37 2 -28 -56 -15 -108 19 -74 24 24 55 6 71 -42 8
-22 13 -47 12 -54 -2 -7 7 -14 20 -16 12 -2 22 -4 23 -5 9 -25 7 -136 -5 -182
-24 -95 -65 -227 -75 -239 -5 -6 -11 -27 -14 -46 -8 -57 -29 -124 -42 -138
-10 -11 -20 -8 -59 15 -39 24 -46 32 -46 60 0 18 5 44 12 58 16 35 -3 48 -59
40 -26 -4 -43 -2 -43 4 0 5 -7 16 -15 24 -12 13 -11 19 13 51 15 19 33 35 40
36 18 0 15 14 -8 35 -11 10 -20 24 -20 32 0 9 -11 12 -32 11 -27 -3 -34 1 -36
19 -2 14 3 23 17 28 26 8 27 21 2 35 -26 13 -32 13 -29 -2 2 -7 -8 -14 -20
-16 -22 -3 -23 -1 -17 27 6 26 4 31 -12 31 -24 0 -43 -19 -43 -42 0 -11 7 -18
20 -18 32 0 34 -26 5 -64 -29 -38 -50 -39 -41 -2 6 26 0 36 -40 64 -30 20 -32
21 -47 4 -10 -11 -14 -26 -10 -41 5 -21 4 -22 -15 -10 -19 12 -24 11 -39 -3
-16 -16 -16 -19 0 -36 20 -22 22 -32 4 -32 -15 0 -40 47 -32 60 3 5 -1 10 -7
13 -10 3 -10 9 1 30 19 36 7 77 -22 77 -20 0 -23 4 -19 30 4 28 2 30 -31 30
-31 0 -35 3 -39 29 -4 26 -2 29 13 20 11 -5 20 -5 23 0 4 5 0 12 -6 14 -10 4
-10 6 0 6 7 1 17 -10 22 -24 10 -25 48 -42 75 -31 8 3 36 -5 62 -19 26 -13 51
-21 56 -18 14 8 -20 48 -39 46 -10 -1 -21 1 -24 5 -3 4 -14 12 -25 18 -11 6
-26 22 -33 36 -6 14 -23 28 -35 32 -13 3 -29 17 -35 31 -16 34 -15 35 8 35 26
0 36 25 19 46 -7 8 -14 29 -16 46 -2 24 0 29 13 24 13 -5 15 -1 9 21 -3 16
-11 30 -16 31 -5 2 -9 8 -9 14 0 6 6 8 14 5 8 -3 17 1 20 9 3 9 1 12 -4 9 -9
-6 -16 27 -10 50 1 6 4 25 5 43 1 18 9 40 17 50 9 9 18 37 21 60 l5 44 -54 -4
c-31 -2 -55 1 -58 7 -7 20 65 135 85 135 10 0 23 9 29 19 5 11 19 23 31 26 22
7 21 31 -2 28 -71 -8 -89 -16 -105 -42 -19 -32 -44 -31 -44 2 0 11 -16 39 -35
63 -35 42 -35 44 -20 73 8 17 27 42 40 56 14 14 22 25 17 25 -6 0 -13 8 -16
17 -8 19 20 47 36 37 14 -9 44 -82 52 -126 4 -22 13 -38 21 -38 16 0 45 27 45
41 0 5 12 14 26 19 22 9 26 15 21 39 -4 16 1 40 10 57 9 16 15 40 14 53 0 14
8 34 19 46 39 41 39 205 1 205 -25 0 -42 22 -31 40 5 8 6 18 4 22 -3 4 2 8 11
8 9 0 22 13 28 30 7 17 21 33 33 36 12 3 37 21 55 40 18 19 41 34 50 34 10 0
21 5 24 10 3 6 13 10 22 10 9 0 47 18 85 40 48 27 82 40 107 40 25 0 44 7 56
20 10 11 37 22 64 26 25 3 53 12 61 19 8 7 31 16 50 20 43 9 109 50 117 73 9
23 23 32 54 32 18 0 28 6 32 20 6 22 32 27 43 8z m482 -76 c2 -7 -3 -12 -12
-12 -9 0 -16 7 -16 16 0 17 22 14 28 -4z m-315 -36 c22 -9 37 -22 37 -32 0
-15 -9 -16 -70 -12 -77 6 -120 1 -120 -14 0 -5 -11 -34 -25 -64 -27 -59 -57
-71 -63 -25 -6 42 8 72 54 114 66 61 105 68 187 33z m317 -14 c28 -23 19 -42
-20 -42 -41 0 -60 10 -60 30 0 33 46 39 80 12z m655 4 c19 -8 35 -20 35 -25 0
-13 -17 -14 -24 -2 -3 4 -19 11 -36 14 -16 4 -30 11 -30 17 0 14 14 13 55 -4z
m-373 -51 c-2 -14 -11 -25 -18 -25 -18 0 -18 9 3 32 21 23 21 23 15 -7z m-442
11 c0 -3 -4 -8 -10 -11 -5 -3 -10 -1 -10 4 0 6 5 11 10 11 6 0 10 -2 10 -4z
m-1080 -61 c0 -8 -4 -15 -9 -15 -5 0 -11 7 -15 15 -3 9 0 15 9 15 8 0 15 -7
15 -15z m-2155 -95 c-3 -5 -11 -10 -16 -10 -6 0 -7 5 -4 10 3 6 11 10 16 10 6
0 7 -4 4 -10z m4288 -52 c8 -13 25 -33 37 -46 37 -39 17 -45 -28 -7 -23 20
-42 45 -42 56 0 26 14 24 33 -3z m-1332 -51 c-8 -8 -11 -2 -11 19 0 40 14 54
18 19 2 -15 -1 -32 -7 -38z m-1033 11 c16 -16 15 -28 -3 -28 -8 0 -19 9 -25
20 -8 15 -8 20 3 20 7 0 18 -5 25 -12z m2602 -93 c29 -47 24 -69 -18 -71 -44
-2 -47 -7 -25 -46 10 -18 19 -35 20 -37 1 -1 7 0 13 4 9 6 9 10 -1 16 -10 6
-9 12 5 28 25 28 34 26 47 -6 12 -28 13 -143 3 -175 -8 -27 -44 -23 -41 5 1
14 -3 22 -13 22 -15 0 -16 -8 -4 -58 5 -19 1 -33 -11 -47 -11 -12 -15 -28 -12
-41 5 -20 3 -21 -41 -16 -61 7 -83 -10 -75 -58 3 -19 2 -50 -1 -69 -5 -28 -12
-36 -29 -36 -39 0 -66 -41 -68 -101 -3 -103 -10 -139 -25 -139 -15 0 -15 0
-20 50 -24 268 -21 363 11 368 11 2 31 14 45 26 14 13 40 29 58 36 58 23 64
41 59 199 -2 78 0 141 3 141 4 0 24 -7 43 -15 20 -8 38 -11 41 -6 3 5 -1 11
-9 15 -8 3 -15 15 -15 26 0 33 36 24 60 -15z m-1623 -132 c-9 -46 -34 -107
-47 -111 -13 -5 -6 49 13 106 14 40 42 44 34 5z m121 -157 c15 -103 14 -389
-1 -398 -22 -14 -24 -8 -26 80 -1 48 -4 110 -6 137 -17 218 -16 252 9 252 9 0
17 -23 24 -71z m1540 -103 c-2 -23 -9 -29 -32 -31 -27 -3 -28 -2 -13 13 10 9
17 23 17 31 0 8 7 14 16 14 11 0 14 -8 12 -27z m-5277 -226 c-13 -13 -26 -3
-16 12 3 6 11 8 17 5 6 -4 6 -10 -1 -17z m5109 -8 c0 -11 -27 -12 -34 0 -3 4
-3 11 0 14 8 8 34 -3 34 -14z m-4520 -29 c0 -21 -15 -27 -25 -10 -7 12 2 30
16 30 5 0 9 -9 9 -20z m-72 -11 c-2 -6 -8 -10 -13 -10 -5 0 -11 4 -13 10 -2 6
4 11 13 11 9 0 15 -5 13 -11z m7314 -68 c21 -25 27 -73 10 -79 -7 -2 -16 5
-19 17 -3 12 -9 21 -14 21 -5 0 -9 14 -9 30 0 35 9 38 32 11z m-4005 -64 c0
-62 21 -157 35 -157 4 0 14 16 22 35 25 59 42 46 66 -50 13 -53 18 -60 41 -63
22 -3 28 -10 32 -35 12 -73 23 -98 47 -110 17 -8 30 -28 41 -62 9 -29 22 -51
32 -53 20 -4 31 -35 22 -63 -5 -15 -9 -18 -15 -9 -14 22 -16 -53 -3 -115 l12
-60 -4 58 c-3 48 0 62 15 77 19 19 20 19 32 -3 9 -15 13 -65 13 -152 l0 -130
35 2 c19 2 73 -3 120 -10 66 -10 85 -16 85 -28 0 -9 7 -24 15 -33 20 -25 -3
-36 -64 -30 -43 4 -48 3 -41 -13 14 -31 22 -137 13 -150 -6 -7 -7 -17 -4 -22
4 -5 -1 -14 -11 -20 -17 -9 -17 -10 0 -29 13 -15 17 -34 16 -80 -2 -48 2 -66
20 -87 11 -15 21 -33 21 -40 0 -7 16 -25 36 -40 30 -23 35 -32 32 -57 -3 -16
-1 -31 4 -34 5 -3 -1 -13 -13 -23 -12 -10 -19 -22 -16 -28 4 -6 36 -21 73 -34
45 -16 72 -32 86 -52 15 -20 24 -25 31 -18 6 6 18 11 26 11 12 0 10 -4 -5 -14
-26 -19 -24 -56 7 -100 13 -20 27 -36 30 -36 3 0 27 -14 52 -31 39 -26 45 -34
37 -49 -13 -25 -13 -30 5 -30 9 0 15 9 15 25 0 29 18 32 58 11 15 -8 48 -18
74 -21 25 -3 52 -13 58 -20 7 -8 20 -15 30 -15 32 0 100 -71 100 -105 0 -10
-35 -4 -54 10 -11 8 -34 15 -52 15 -17 0 -42 8 -55 18 -26 20 -116 48 -125 39
-3 -3 13 -15 35 -27 48 -24 45 -44 -5 -34 -22 4 -34 2 -34 -5 0 -6 -4 -11 -10
-11 -17 0 -85 51 -92 69 -10 28 -97 67 -118 53 -10 -6 -26 -9 -36 -6 -11 3
-30 1 -44 -5 -14 -5 -19 -10 -12 -10 20 -1 14 -29 -9 -42 -12 -6 -30 -8 -42
-5 -14 3 -28 -4 -48 -25 -32 -34 -55 -37 -64 -9 -3 11 -11 21 -16 22 -28 4
-33 0 -36 -27 -2 -16 -9 -35 -14 -42 -7 -8 -4 -20 11 -41 17 -23 19 -33 10
-56 -5 -15 -10 -38 -10 -50 0 -13 -6 -29 -14 -35 -8 -7 -15 -20 -15 -29 -3
-64 -8 -84 -19 -91 -7 -4 -14 -14 -16 -22 -1 -8 -7 -23 -13 -34 -9 -15 -8 -26
5 -50 9 -16 20 -31 25 -33 4 -2 7 -21 7 -42 0 -22 6 -59 14 -82 7 -24 27 -88
44 -143 43 -139 96 -303 133 -410 32 -95 39 -116 87 -285 35 -125 67 -225 94
-300 11 -30 23 -71 27 -90 5 -19 19 -69 33 -110 14 -41 42 -129 63 -195 52
-167 61 -195 80 -238 8 -21 13 -42 10 -47 -7 -11 83 -103 109 -113 20 -8 21
-27 1 -27 -21 0 -19 -23 4 -44 24 -22 77 -16 75 8 -3 26 26 19 36 -10 13 -33
13 -34 -6 -34 -10 0 -14 -6 -11 -14 8 -21 -20 -43 -35 -28 -14 14 -48 16 -48
3 0 -5 7 -14 15 -21 19 -16 19 -27 -2 -50 -17 -17 -19 -18 -40 -1 -16 13 -23
34 -28 84 -4 36 -14 74 -22 84 -8 10 -11 12 -7 4 13 -26 5 -69 -20 -110 -15
-23 -23 -47 -19 -57 5 -14 1 -15 -23 -10 -20 4 -43 0 -72 -14 -23 -11 -42 -22
-42 -24 0 -2 6 -22 14 -44 14 -39 14 -42 -9 -66 -13 -14 -32 -26 -41 -26 -10
0 -14 -3 -11 -7 4 -3 -2 -13 -14 -21 -18 -12 -22 -12 -34 4 -12 16 -12 21 1
31 10 7 13 16 8 25 -5 7 -9 21 -9 30 0 10 -3 18 -7 18 -39 1 -40 -1 -36 -29 3
-23 -1 -32 -19 -40 -27 -13 -46 -56 -39 -87 5 -17 0 -23 -19 -28 -14 -4 -25
-13 -25 -21 0 -9 -10 -15 -24 -15 -28 0 -41 27 -31 61 5 16 3 20 -6 17 -8 -3
-13 -12 -11 -21 1 -8 -2 -18 -8 -22 -19 -12 -10 -45 15 -57 20 -9 23 -14 13
-26 -10 -11 -8 -17 7 -28 22 -17 30 -17 55 -4 13 7 21 7 25 0 3 -6 -5 -14 -18
-19 -33 -13 -41 -28 -38 -73 2 -27 -1 -38 -11 -38 -23 0 -39 22 -27 36 15 19
-6 53 -29 47 -10 -2 -24 3 -31 11 -8 9 -21 16 -31 16 -9 0 -29 9 -43 20 -28
22 -52 26 -62 10 -8 -13 13 -41 29 -39 31 4 35 -1 26 -27 -6 -14 -7 -30 -4
-36 11 -18 13 -113 2 -125 -6 -7 -17 -13 -25 -13 -23 0 -26 28 -5 57 18 25 18
31 6 48 -8 10 -14 27 -14 37 0 12 -13 24 -35 34 -30 12 -34 17 -25 34 14 25
13 30 -5 30 -23 0 -65 -30 -65 -46 0 -8 -5 -14 -10 -14 -6 0 -15 -11 -20 -25
-8 -22 -13 -24 -29 -15 -11 6 -24 16 -28 23 -7 11 -65 28 -144 41 -25 5 -84
-28 -83 -46 1 -12 -4 -14 -25 -9 -16 5 -35 2 -53 -8 -25 -15 -29 -15 -45 2
-17 17 -17 19 -1 47 17 29 16 30 -9 42 -36 18 -39 34 -9 54 24 15 28 15 51 0
24 -16 35 -56 15 -56 -5 0 -10 -5 -10 -10 0 -6 15 -4 37 5 20 8 38 13 41 11 2
-3 17 1 33 9 16 9 32 14 36 14 14 -3 43 13 43 24 0 6 -7 17 -15 26 -8 9 -28
31 -44 49 -34 36 -41 39 -41 18 0 -8 -5 -18 -10 -21 -16 -10 -40 15 -40 41 0
26 8 25 -146 28 -48 0 -87 6 -96 13 -8 7 -18 10 -21 7 -8 -8 -37 21 -37 38 0
20 -52 41 -62 25 -4 -7 -2 -17 7 -23 8 -6 15 -23 15 -37 0 -14 4 -28 9 -31 5
-3 7 -15 4 -26 -4 -14 3 -28 21 -43 33 -28 33 -47 2 -47 -13 0 -26 -5 -28 -11
-2 -7 -19 -13 -38 -14 -40 -2 -70 -13 -70 -26 0 -12 76 -50 84 -42 13 13 5
-24 -10 -45 -20 -29 -79 -32 -71 -3 6 25 -44 81 -73 81 -34 0 -90 36 -90 57 0
5 5 14 12 21 9 9 18 5 40 -19 39 -42 74 -38 70 9 -3 24 0 32 13 32 27 0 29 29
4 56 l-24 26 33 26 c18 15 32 30 32 34 0 4 -18 12 -40 18 -42 11 -51 24 -25
34 8 3 15 14 15 24 0 11 -7 25 -15 32 -10 9 -15 9 -15 1 0 -6 -12 -11 -26 -11
-20 0 -24 -4 -19 -19 7 -22 -17 -44 -42 -39 -10 2 -18 12 -18 23 0 23 -28 55
-48 55 -15 0 -42 27 -49 49 -3 11 -8 10 -22 -4 -20 -20 -30 -12 -42 32 -6 22
-6 22 -27 2 -29 -27 -42 -24 -54 14 -8 27 -7 36 5 43 13 9 13 14 -2 49 -10 22
-22 49 -28 59 -8 16 -6 23 13 37 l24 19 -37 0 c-37 0 -49 -12 -28 -25 20 -12
-11 -35 -47 -35 -45 0 -39 -18 13 -39 21 -9 45 -20 52 -24 20 -14 14 -37 -10
-37 -26 0 -88 35 -88 50 0 5 -13 7 -30 4 -25 -5 -36 -1 -62 26 l-33 32 37 -6
c30 -6 41 -2 64 19 26 24 54 68 54 85 0 5 -12 10 -27 12 -24 3 -28 7 -25 30 2
22 -1 27 -20 26 -56 -3 -98 3 -112 18 -19 19 -20 25 -3 48 12 16 14 16 37 -2
14 -11 36 -23 48 -27 21 -6 23 -5 13 13 -6 12 -11 32 -11 45 0 14 -7 30 -16
38 -11 9 -14 22 -10 41 5 23 2 28 -15 28 -28 0 -34 24 -16 73 26 69 31 107 15
107 -33 0 -49 -25 -52 -85 -2 -33 -9 -61 -15 -63 -6 -2 -18 -11 -27 -19 -18
-19 -18 -19 -33 38 -10 36 -17 46 -30 42 -20 -5 -47 23 -56 59 -7 26 -5 27 37
30 38 3 43 6 48 32 4 22 14 32 47 45 55 21 59 27 43 56 -14 26 -50 35 -50 13
0 -24 -48 -60 -77 -58 -48 3 -53 1 -53 -30 0 -20 -7 -33 -21 -41 -14 -7 -19
-17 -16 -29 7 -25 -12 -38 -43 -30 -30 7 -40 40 -13 40 27 0 59 25 45 34 -7 4
-12 13 -12 20 0 16 54 76 68 76 15 0 15 15 2 41 -12 22 -50 26 -50 5 0 -18
-30 -30 -43 -17 -7 7 -6 18 2 34 18 34 10 60 -19 67 -21 5 -25 12 -28 49 -2
24 1 56 6 71 7 18 7 31 0 38 -15 15 9 52 32 52 22 0 25 12 10 41 -15 26 -38
24 -62 -6 -24 -31 -48 -32 -50 -2 -5 82 16 124 64 129 28 3 33 7 31 28 -1 19
7 30 28 42 20 12 29 25 29 43 0 38 23 30 46 -18 16 -35 18 -49 10 -80 -20 -79
33 -74 96 9 41 55 80 76 101 55 18 -18 47 -13 47 9 0 11 7 20 15 20 14 0 19
-11 16 -36 -1 -7 12 -17 29 -22 29 -11 40 -38 23 -56 -5 -4 -8 -28 -8 -53 -1
-36 -5 -47 -18 -49 -11 -1 -17 5 -17 17 0 10 -4 19 -10 19 -5 0 -10 7 -10 15
0 9 -9 15 -24 15 -13 0 -27 6 -29 13 -3 6 -6 2 -6 -11 -1 -14 -11 -27 -26 -34
-14 -6 -25 -17 -25 -25 0 -7 -7 -13 -15 -13 -8 0 -15 4 -15 9 0 5 7 16 15 25
8 8 15 22 15 31 0 8 7 18 15 21 8 4 15 12 15 19 0 26 -52 9 -81 -26 l-28 -34
22 -23 c19 -20 22 -34 20 -87 -2 -35 1 -66 6 -69 9 -6 75 63 84 88 8 20 36 20
65 0 18 -12 20 -19 12 -29 -20 -24 -1 -38 26 -21 31 21 37 20 50 -8 10 -21 9
-25 -8 -30 -24 -6 -14 -26 13 -26 26 0 42 44 36 100 -3 25 -1 53 5 63 8 15 4
25 -17 47 -26 27 -27 28 -7 39 21 11 42 59 42 97 0 24 29 95 43 105 11 8 -45
19 -98 19 -57 0 -95 30 -95 75 0 52 17 59 112 45 46 -6 98 -18 117 -26 37 -15
47 -13 38 10 -7 19 -102 46 -160 46 -35 0 -49 5 -60 21 -13 18 -13 28 4 87 10
36 24 69 30 73 13 8 93 -14 158 -43 51 -22 56 -19 65 52 4 26 25 139 47 251
22 112 38 216 36 231 -2 15 2 29 9 32 6 2 17 35 24 73 6 37 20 99 30 138 10
38 17 72 15 76 -4 5 -50 12 -160 23 -12 2 -8 57 6 70 5 6 9 18 9 27 0 10 5 21
11 25 11 6 73 -21 97 -43 20 -19 37 -16 21 4 -13 15 -8 16 61 10 41 -3 76 -11
78 -17 4 -12 42 -14 42 -1 0 18 67 18 154 0 100 -21 123 -23 85 -6 -14 7 -33
18 -41 24 -34 29 -164 66 -233 67 -38 1 -110 3 -159 4 l-89 2 7 43 c4 23 15
58 24 79 15 31 25 38 72 52 30 9 66 17 80 20 22 3 21 3 -5 5 -16 1 -50 7 -75
15 l-45 13 1 54 c0 31 14 98 31 154 17 55 39 134 48 175 21 89 50 145 61 117
6 -16 2 -107 -11 -227 l-4 -45 14 44 c18 53 52 352 59 517 4 72 13 143 23 174
15 47 18 50 30 34 17 -23 16 -80 -1 -229 -8 -66 -19 -172 -26 -235 -6 -63 -23
-195 -37 -293 -19 -135 -23 -184 -15 -202 9 -20 8 -24 -6 -27 -12 -2 -4 -10
25 -25 41 -21 41 -21 59 -2 16 18 16 19 -5 19 -19 0 -20 3 -11 20 13 24 30 26
30 5 0 -16 37 -19 103 -9 27 5 37 11 37 25 0 11 -4 19 -10 19 -5 0 -10 5 -10
11 0 5 4 8 8 5 5 -3 19 8 31 25 18 24 25 56 37 162 8 73 16 138 19 145 3 7 7
54 11 105 3 51 10 108 15 127 5 19 9 56 9 82 0 49 15 68 149 193 23 22 47 48
52 57 15 27 -1 239 -18 245 -8 3 -16 3 -19 0 -3 -3 -9 -55 -14 -117 -4 -66
-13 -117 -20 -123 -10 -10 -11 -5 -7 19 3 18 1 36 -6 43 -6 6 -8 11 -4 11 3 0
1 12 -5 28 -6 15 -10 56 -9 91 2 56 0 63 -12 53 -8 -7 -20 -32 -27 -57 -16
-57 -35 -75 -54 -50 -7 10 -11 27 -8 37 3 12 -6 30 -24 49 -33 35 -44 37 -44
7 0 -12 -9 -40 -20 -62 -10 -23 -26 -59 -34 -81 -14 -38 -15 -39 -15 -10 0 80
17 185 36 211 11 16 19 40 19 54 -1 32 22 82 34 75 6 -4 10 -23 10 -44 0 -21
8 -49 18 -62 10 -13 23 -36 30 -51 6 -16 15 -28 20 -28 26 0 62 76 82 175 7
33 17 63 23 66 6 5 5 29 -3 74 -12 62 -9 183 5 205 3 5 12 7 19 4 9 -4 13 -24
13 -67z m-2427 32 c15 -27 -3 -49 -41 -49 -38 0 -45 17 -18 46 28 29 45 30 59
3z m1175 -69 c3 -5 1 -10 -4 -10 -6 0 -11 5 -11 10 0 6 2 10 4 10 3 0 8 -4 11
-10z m-2455 -25 c0 -8 -9 -15 -20 -15 -20 0 -26 11 -13 23 12 13 33 7 33 -8z
m4631 -45 c17 0 18 -193 1 -250 -28 -93 -50 -130 -77 -130 -14 0 -28 7 -32 16
-4 11 -13 13 -37 8 -17 -4 -42 -8 -56 -9 -41 -4 -42 -4 -36 -23 10 -29 -16
-54 -58 -57 -22 -1 -32 1 -24 6 7 4 10 10 8 13 -3 2 -15 -4 -28 -14 -13 -11
-18 -21 -12 -25 5 -3 10 -10 10 -16 0 -10 -33 -12 -44 -2 -8 8 -39 14 -90 17
-35 1 -39 5 -52 41 -15 41 -13 167 5 231 7 28 41 48 41 24 0 -6 16 -31 36 -55
24 -29 42 -43 57 -42 21 1 56 33 57 51 0 17 33 46 52 46 10 0 21 6 24 14 7 19
56 38 86 35 40 -6 74 24 82 71 6 41 34 64 64 54 8 -2 18 -4 23 -4z m-2401 -84
c0 -8 -4 -17 -9 -20 -10 -7 -23 19 -14 28 11 11 23 6 23 -8z m154 5 c3 -5 -1
-11 -9 -15 -15 -6 -29 7 -18 18 9 9 21 8 27 -3z m-54 -94 c0 -5 -4 -6 -9 -2
-5 3 -12 1 -16 -5 -4 -6 -12 -5 -21 5 -22 22 -9 35 21 22 14 -7 25 -16 25 -20z
m5625 -94 c4 -19 3 -33 -3 -33 -17 0 -33 27 -39 67 l-5 38 20 -20 c11 -11 23
-35 27 -52z m-1307 35 c14 -14 15 -28 3 -47 -13 -21 -41 4 -41 35 0 26 19 31
38 12z m-800 -10 c22 -22 14 -48 -13 -48 -27 0 -41 20 -31 45 7 18 28 19 44 3z
m-2602 -67 c-10 -15 -46 -14 -46 2 0 7 5 18 12 25 10 10 15 9 26 -2 8 -8 11
-19 8 -25z m91 -21 c-1 -22 -5 -40 -9 -40 -10 0 -10 8 -2 49 9 42 13 39 11 -9z
m-1100 12 c7 -4 9 -13 4 -21 -10 -16 -31 -6 -31 15 0 16 9 18 27 6z m33 -202
c0 -5 -4 -10 -9 -10 -6 0 -13 5 -16 10 -3 6 1 10 9 10 9 0 16 -4 16 -10z m194
-66 c4 -9 4 -19 1 -22 -6 -6 -35 18 -35 29 0 16 28 10 34 -7z m2237 -36 c24
-29 29 -31 44 -18 16 14 17 9 14 -62 -3 -48 -10 -82 -18 -90 -10 -10 -15 -10
-18 -1 -2 7 -11 9 -18 6 -18 -6 -58 26 -65 52 -11 45 -5 126 10 135 22 14 22
13 51 -22z m-5458 -14 c10 -10 -12 -44 -28 -44 -22 0 -27 17 -9 34 17 17 27
20 37 10z m1163 -26 c9 -15 -27 -41 -39 -29 -13 13 -1 41 17 41 8 0 18 -5 22
-12z m1914 -58 c0 -5 -4 -10 -10 -10 -5 0 -10 5 -10 10 0 6 5 10 10 10 6 0 10
-4 10 -10z m460 -20 c0 -5 -4 -10 -10 -10 -5 0 -10 5 -10 10 0 6 5 10 10 10 6
0 10 -4 10 -10z m-385 -10 c-3 -5 -13 -10 -21 -10 -8 0 -12 5 -9 10 3 6 13 10
21 10 8 0 12 -4 9 -10z m120 -30 c20 0 20 -36 -1 -44 -39 -15 -71 37 -41 68
10 12 13 11 19 -5 4 -10 14 -19 23 -19z m133 -12 c17 -17 15 -38 -3 -38 -9 0
-19 -8 -22 -17 -6 -15 -7 -15 -14 3 -14 36 -10 64 9 64 10 0 23 -5 30 -12z
m137 -8 c3 -6 -1 -13 -10 -16 -19 -8 -30 0 -20 15 8 14 22 14 30 1z m1945 -24
c-1 -35 -14 -56 -36 -56 -28 0 -32 24 -9 57 16 22 45 22 45 -1z m1950 -6 c0
-5 -7 -7 -15 -4 -8 4 -12 10 -9 15 6 11 24 2 24 -11z m-3967 -18 c10 -11 13
-23 8 -31 -12 -19 -51 4 -51 29 0 25 22 26 43 2z m242 -62 c7 -12 -2 -12 -30
0 -19 8 -19 9 2 9 12 1 25 -3 28 -9z m-55 -15 c34 -18 39 -35 10 -35 -11 0
-20 -7 -20 -15 0 -9 -12 -20 -26 -26 -15 -5 -24 -12 -21 -16 6 -5 -8 -25 -54
-81 -6 -7 -9 -15 -7 -18 11 -10 109 -2 201 16 26 6 53 10 59 10 16 0 4 -107
-27 -225 -14 -55 -25 -111 -25 -124 0 -38 -31 -111 -46 -111 -8 0 -14 -4 -14
-10 0 -5 -9 -10 -20 -10 -11 0 -20 -7 -20 -15 0 -10 -10 -15 -29 -15 -16 0
-41 -4 -55 -10 -24 -9 -25 -10 -9 -41 14 -27 20 -31 47 -26 61 9 69 -7 36 -75
-11 -23 -20 -48 -20 -55 0 -8 -12 -13 -28 -13 -15 0 -33 -5 -39 -11 -6 -6 -20
-8 -31 -5 -17 6 -22 18 -27 64 -3 31 -11 65 -16 76 -10 18 1 35 24 36 4 0 0
14 -8 30 -15 29 -18 30 -63 26 -26 -3 -73 -8 -105 -12 -52 -5 -58 -8 -54 -25
7 -27 -7 -32 -47 -15 -27 11 -44 12 -73 4 -43 -11 -133 -59 -133 -70 0 -5 -7
-8 -16 -8 -15 0 -92 -55 -119 -84 -5 -6 -35 -31 -65 -56 -30 -24 -63 -51 -72
-60 -9 -8 -45 -35 -80 -59 -71 -49 -112 -95 -105 -115 3 -7 51 -26 107 -42
119 -33 261 -100 274 -129 11 -23 96 -94 144 -119 17 -9 32 -21 32 -26 0 -5
21 -29 46 -52 44 -42 114 -146 114 -172 0 -19 48 -80 76 -96 35 -20 44 -47 30
-90 l-11 -35 -57 3 c-49 3 -58 0 -72 -20 -9 -12 -16 -30 -16 -39 0 -9 -7 -22
-15 -29 -22 -19 -50 10 -65 68 -7 26 -20 53 -29 60 -11 9 -15 26 -14 60 2 37
-5 62 -34 120 -69 137 -144 189 -344 241 -133 34 -179 54 -237 107 -23 20 -63
51 -89 68 -43 28 -48 35 -49 69 -1 24 -9 46 -23 61 -19 20 -21 30 -16 77 8 63
26 108 55 134 11 10 20 24 20 31 0 7 14 24 30 37 17 14 30 35 30 45 0 14 14
27 43 41 27 14 58 43 87 83 43 58 57 76 112 140 34 39 215 108 301 115 55 5
65 8 56 19 -6 8 -19 14 -29 14 -10 0 -20 7 -24 15 -4 12 4 15 39 15 33 0 45 4
45 15 0 17 9 19 30 6 8 -6 18 -7 24 -4 5 4 21 7 35 9 50 4 126 26 143 42 14
11 32 13 80 9 35 -4 78 -3 97 1 33 7 32 8 -29 21 -48 11 -67 11 -81 3 -25 -16
-39 -15 -39 2 0 8 -16 20 -35 27 -44 16 -35 25 32 32 46 5 53 4 58 -14 5 -14
16 -19 43 -19 20 0 48 -3 62 -5 22 -5 21 -3 -5 9 l-30 15 40 1 c39 1 40 1 18
17 -17 11 -23 25 -23 54 0 22 4 39 9 39 4 0 12 19 17 43 8 34 13 42 31 40 21
-2 43 16 47 39 2 16 15 38 22 38 3 0 18 -7 34 -15z m-800 -15 c0 -5 -7 -10
-16 -10 -8 0 -12 5 -9 10 3 6 10 10 16 10 5 0 9 -4 9 -10z m841 -95 c-1 -15
-24 -12 -29 3 -3 9 2 13 12 10 10 -1 17 -7 17 -13z m-891 -5 c0 -5 -4 -10 -10
-10 -5 0 -10 5 -10 10 0 6 5 10 10 10 6 0 10 -4 10 -10z m300 -25 c6 -8 11
-29 9 -47 -5 -73 1 -118 15 -118 24 0 6 -38 -21 -45 -43 -10 -41 13 2 28 16 6
-16 38 -34 35 -12 -2 -17 6 -19 32 -2 19 -8 40 -13 46 -13 16 2 26 18 13 10
-9 13 -8 13 4 0 8 -11 18 -25 21 -30 8 -34 26 -6 26 11 0 23 5 26 10 9 14 21
12 35 -5z m568 -3 c3 -9 -2 -13 -14 -10 -9 1 -19 9 -22 16 -3 9 2 13 14 10 9
-1 19 -9 22 -16z m-269 -16 c9 -10 8 -16 -4 -26 -20 -16 -38 -1 -29 23 8 21
18 22 33 3z m-169 -36 c0 -5 -2 -10 -4 -10 -3 0 -8 5 -11 10 -3 6 -1 10 4 10
6 0 11 -4 11 -10z m-45 -40 c-3 -5 -11 -10 -16 -10 -6 0 -7 5 -4 10 3 6 11 10
16 10 6 0 7 -4 4 -10z m6118 -12 c7 -25 3 -33 -12 -23 -13 8 -15 45 -2 45 5 0
11 -10 14 -22z m-4146 -66 c3 -25 1 -31 -11 -26 -10 4 -16 18 -16 36 0 40 23
32 27 -10z m-1907 13 c0 -16 -9 -19 -34 -9 -25 9 -19 24 9 24 16 0 25 -6 25
-15z m968 -87 c-6 -18 -28 -21 -28 -4 0 9 7 16 16 16 9 0 14 -5 12 -12z m-156
-70 c-2 -44 -9 -79 -18 -88 -12 -12 -14 -9 -14 22 0 42 21 138 30 138 3 0 4
-33 2 -72z m2116 25 c2 -8 -5 -13 -17 -13 -12 0 -21 6 -21 16 0 18 31 15 38
-3z m140 -51 c4 -28 -24 -40 -45 -19 -21 21 -9 49 19 45 15 -2 24 -11 26 -26z
m-1123 -62 c3 -5 -3 -10 -14 -10 -12 0 -21 5 -21 10 0 6 6 10 14 10 8 0 18 -4
21 -10z m429 -185 c3 -9 0 -15 -9 -15 -8 0 -15 7 -15 15 0 8 4 15 9 15 5 0 11
-7 15 -15z m41 -165 c7 -12 -9 -11 -45 0 -18 6 -20 8 -7 9 11 1 15 6 11 12 -5
8 -1 8 14 0 12 -6 24 -16 27 -21z m-3315 -15 c0 -23 -2 -24 -20 -15 -11 6 -20
17 -20 25 0 8 9 15 20 15 15 0 20 -7 20 -25z m1224 -40 c38 -16 46 -32 21 -41
-22 -9 -56 2 -94 31 l-35 25 36 0 c19 0 52 -7 72 -15z m77 -184 c-6 -20 -18
-70 -27 -111 -8 -41 -24 -100 -34 -130 -11 -30 -22 -69 -25 -87 -4 -21 -11
-30 -19 -27 -11 4 -11 14 -4 42 5 20 15 62 22 92 31 134 86 294 94 271 2 -7 0
-30 -7 -50z m2042 39 c19 -23 22 -40 7 -40 -5 0 -10 -8 -10 -17 -1 -15 -2 -16
-9 -3 -14 24 -23 80 -14 80 5 0 16 -9 26 -20z m77 -64 c-7 -7 -10 4 -9 30 1
39 1 39 10 9 5 -18 5 -33 -1 -39z m-3648 2 c-15 -15 -26 -4 -18 18 5 13 9 15
18 6 9 -9 9 -15 0 -24z m634 -10 c34 1 56 -3 63 -12 9 -10 8 -15 -3 -19 -24
-9 -134 13 -148 30 -11 14 -10 15 12 7 14 -4 48 -7 76 -6z m-585 -111 c-1 -12
-15 -9 -19 4 -3 6 1 10 8 8 6 -3 11 -8 11 -12z m1352 -87 c-1 -38 -5 -76 -10
-82 -4 -7 -8 -17 -8 -23 0 -5 -8 -26 -17 -45 -8 -19 -23 -57 -31 -85 -14 -44
-14 -53 -1 -72 13 -21 13 -23 -4 -23 -11 0 -25 -14 -35 -36 -22 -45 -38 -36
-26 13 5 21 15 63 21 93 6 30 17 72 24 93 8 20 14 50 14 65 1 61 45 172 68
172 4 0 7 -31 5 -70z m-1453 -7 c0 -33 -2 -36 -15 -23 -8 9 -12 24 -9 38 10
35 24 26 24 -15z m4119 -19 c26 -43 19 -87 -19 -114 -35 -25 -50 -11 -50 50 0
25 -7 56 -16 68 -12 18 -13 26 -4 37 18 21 65 -1 89 -41z m2579 -2 c2 -7 -3
-12 -12 -12 -9 0 -16 7 -16 16 0 17 22 14 28 -4z m-6691 -204 c-3 -57 -10
-135 -16 -175 -6 -39 -11 -88 -13 -107 -2 -42 -13 -47 -22 -10 -11 42 20 325
41 380 12 33 15 8 10 -88z m294 53 c-8 -5 -20 -7 -28 -4 -21 8 -15 13 15 13
20 0 23 -3 13 -9z m3421 -63 c-9 -9 -12 -7 -12 12 0 19 3 21 12 12 9 -9 9 -15
0 -24z m436 -33 c9 -9 36 -32 60 -53 47 -40 77 -86 66 -103 -3 -6 -17 4 -31
23 l-25 33 6 -30 c4 -16 20 -52 36 -78 17 -27 30 -50 30 -52 0 -14 -54 23 -65
44 l-14 26 -1 -27 c0 -14 6 -29 13 -31 9 -4 9 -8 -2 -15 -9 -7 -10 -12 -2 -16
6 -4 11 -2 11 3 0 21 20 10 26 -14 3 -14 13 -25 21 -25 8 0 27 -13 41 -28 15
-16 36 -33 47 -40 14 -8 17 -14 9 -22 -8 -8 -24 -5 -58 10 -60 25 -78 25 -46
0 l25 -21 -30 7 c-42 10 -145 62 -151 78 -3 7 4 34 16 60 l20 48 -21 47 c-12
25 -25 53 -29 61 -12 26 8 130 26 130 2 0 12 -7 22 -15z m-3198 -131 c0 -14
-4 -22 -10 -19 -5 3 -10 15 -10 26 0 23 -8 24 -31 3 -10 -9 -23 -13 -29 -9
-15 9 -2 25 21 25 10 0 19 5 19 10 0 7 6 7 20 0 12 -6 20 -21 20 -36z m60
-264 c0 -20 -5 -30 -15 -30 -18 0 -30 24 -21 45 10 28 36 17 36 -15z m192
-110 c-32 -31 -46 -24 -21 11 15 22 25 27 32 20 8 -8 5 -17 -11 -31z m3190
-47 c8 -16 13 -34 10 -42 -2 -8 4 -20 14 -28 12 -9 15 -16 8 -23 -7 -7 -20 1
-42 24 -17 19 -28 37 -24 41 3 3 0 10 -8 15 -11 7 -11 11 -1 24 18 22 24 20
43 -11z m76 8 c3 -8 -1 -12 -9 -9 -7 2 -15 10 -17 17 -3 8 1 12 9 9 7 -2 15
-10 17 -17z m-3219 -33 c0 7 5 11 9 8 10 -6 3 -66 -8 -66 -4 0 -10 14 -13 30
-4 19 -13 30 -24 31 -17 1 -17 2 0 6 9 2 18 12 18 21 1 9 5 4 9 -13 4 -16 8
-24 9 -17z m-667 -30 c-15 -15 -26 -4 -18 18 5 13 9 15 18 6 9 -9 9 -15 0 -24z
m6588 -2 c0 -33 -10 -57 -21 -50 -16 9 -11 74 6 74 9 0 15 -9 15 -24z m-2825
-28 c14 -6 25 -15 25 -19 0 -4 3 -14 6 -22 3 -8 -3 -22 -12 -32 -14 -13 -14
-19 -4 -25 7 -4 9 -13 6 -19 -4 -6 -11 -9 -15 -7 -14 9 -48 -48 -44 -73 5 -34
11 -38 28 -15 8 11 11 29 8 43 -4 17 -2 22 6 17 7 -4 18 -3 25 3 22 19 42 -13
27 -45 -12 -28 -7 -44 15 -44 8 0 14 -5 14 -11 0 -5 4 -8 9 -4 5 3 12 1 15 -4
3 -5 -7 -11 -22 -14 -26 -5 -27 -8 -24 -56 4 -49 3 -51 -21 -51 -15 0 -32 9
-42 23 -15 21 -16 21 -27 3 -10 -17 -11 -17 -22 5 -11 20 -10 27 2 41 13 16
11 24 -18 82 -31 60 -32 66 -18 88 10 15 12 30 7 43 -15 38 -10 73 13 89 27
19 30 19 63 4z m-3115 -20 c0 -6 -6 -5 -15 2 -8 7 -15 14 -15 16 0 2 7 1 15
-2 8 -4 15 -11 15 -16z m-481 -34 c-24 -26 -43 -20 -37 12 3 19 50 37 57 21 2
-4 -7 -19 -20 -33z m597 20 c17 -14 17 -15 1 -10 -10 3 -23 6 -28 6 -5 0 -9 5
-9 10 0 14 13 12 36 -6z m-636 -101 c3 -3 5 -8 6 -11 0 -4 4 -15 8 -25 5 -11
1 -33 -12 -60 -17 -35 -18 -43 -5 -45 10 -3 13 -11 9 -28 -6 -21 -3 -24 24
-24 20 0 30 5 30 15 0 17 46 39 61 29 28 -17 -13 -67 -48 -58 -16 4 -21 1 -20
-12 3 -24 -33 -31 -49 -9 -7 9 -17 14 -23 10 -18 -11 -12 -25 15 -35 18 -7 24
-15 20 -26 -3 -9 -6 -20 -6 -25 0 -5 -6 -9 -14 -9 -21 0 -46 40 -46 72 0 15
-8 33 -20 41 -17 12 -18 17 -7 48 6 19 17 39 24 44 11 10 17 28 14 51 0 7 -10
14 -21 17 -19 5 -28 36 -14 50 6 6 65 -2 74 -10z m-292 -17 c3 -12 -1 -17 -10
-14 -7 3 -15 13 -16 22 -3 12 1 17 10 14 7 -3 15 -13 16 -22z m115 -20 c35
-41 35 -43 11 -38 -13 2 -24 9 -24 14 0 5 -4 7 -8 4 -13 -8 -42 32 -36 49 9
23 19 19 57 -29z m7147 -161 c0 -8 -4 -15 -10 -15 -5 0 -10 7 -10 15 0 8 5 15
10 15 6 0 10 -7 10 -15z m-7345 -85 c-3 -5 3 -10 14 -10 12 0 21 -4 21 -10 0
-5 -12 -10 -26 -10 -19 0 -25 -4 -22 -17 3 -14 12 -17 36 -15 33 3 42 -8 20
-25 -16 -12 -48 -13 -48 -1 0 4 -7 8 -15 8 -8 0 -15 5 -15 10 0 6 -12 15 -26
20 -23 9 -24 12 -10 25 8 8 24 15 35 15 12 0 21 5 21 10 0 6 5 10 11 10 5 0 7
-4 4 -10z m460 -86 c0 -11 7 -19 17 -19 9 0 20 -4 24 -8 4 -4 -2 -7 -12 -7
-11 0 -25 -5 -32 -12 -9 -9 -15 -8 -27 8 -17 23 -19 34 -5 34 6 0 10 7 10 16
0 9 6 14 12 12 7 -3 13 -13 13 -24z m-545 -7 c0 -14 -19 -37 -31 -37 -14 0
-19 34 -7 42 20 12 38 10 38 -5z m60 -28 c0 -20 -15 -26 -25 -9 -9 15 3 43 15
35 5 -3 10 -15 10 -26z m545 -89 c22 0 22 -2 10 -37 -7 -21 -17 -39 -23 -41
-17 -5 -62 58 -62 89 l0 30 26 -20 c15 -12 37 -21 49 -21z m3393 -43 c2 -9 -4
-20 -13 -23 -20 -8 -50 19 -40 36 10 17 49 8 53 -13z m-748 -27 c0 -5 -7 -10
-15 -10 -8 0 -15 5 -15 10 0 6 7 10 15 10 8 0 15 -4 15 -10z m355 -34 c12 -12
12 -15 -4 -19 -22 -5 -54 11 -46 24 9 13 34 11 50 -5z m-3501 -32 c9 -22 8
-24 -9 -24 -8 0 -15 9 -15 20 0 24 15 27 24 4z m456 12 c0 -3 -4 -8 -10 -11
-5 -3 -10 -1 -10 4 0 6 5 11 10 11 6 0 10 -2 10 -4z m-56 -27 c30 -14 25 -29
-10 -29 -17 0 -24 5 -24 20 0 23 1 24 34 9z m103 -99 c0 -23 -5 -30 -21 -30
-15 0 -17 3 -8 12 7 7 12 20 12 30 0 10 4 18 8 18 5 0 9 -13 9 -30z m99 15
c14 -13 18 -13 36 -1 26 19 58 1 58 -32 0 -21 -3 -22 -60 -19 -67 3 -85 15
-75 46 8 25 21 27 41 6z m3035 -1 c17 -8 29 -18 26 -20 -8 -9 -70 11 -75 24
-5 16 13 15 49 -4z m-410 -24 c27 -15 24 -40 -5 -40 -28 0 -40 14 -32 35 6 18
11 18 37 5z m-2951 -35 c0 -8 -4 -15 -10 -15 -5 0 -10 7 -10 15 0 8 5 15 10
15 6 0 10 -7 10 -15z m2909 -1 c8 -7 -12 -24 -29 -24 -22 0 -34 15 -25 30 6 9
41 5 54 -6z m-2519 -50 c0 -13 -4 -24 -9 -24 -17 0 -33 29 -26 50 5 17 10 19
21 9 8 -6 14 -22 14 -35z m2900 36 c0 -5 -2 -10 -4 -10 -3 0 -8 5 -11 10 -3 6
-1 10 4 10 6 0 11 -4 11 -10z m-130 -10 c0 -5 -4 -10 -10 -10 -5 0 -10 5 -10
10 0 6 5 10 10 10 6 0 10 -4 10 -10z m-2572 -18 c2 -7 -6 -12 -17 -12 -21 0
-27 11 -14 24 9 9 26 2 31 -12z m2383 -15 c-1 -12 -15 -9 -19 4 -3 6 1 10 8 8
6 -3 11 -8 11 -12z m-87 -23 c10 -26 -65 -47 -80 -22 -10 16 32 47 55 41 11
-3 22 -11 25 -19z m-2586 -72 c3 -16 -2 -22 -16 -22 -24 0 -35 23 -19 39 16
16 31 8 35 -17z m2552 2 c0 -9 -5 -14 -12 -12 -18 6 -21 28 -4 28 9 0 16 -7
16 -16z m-2440 -14 c0 -5 -5 -10 -11 -10 -5 0 -7 5 -4 10 3 6 8 10 11 10 2 0
4 -4 4 -10z m2730 -16 c0 -9 -7 -14 -17 -12 -25 5 -28 28 -4 28 12 0 21 -6 21
-16z m-4622 -27 c2 -12 -3 -17 -17 -17 -15 0 -21 6 -21 21 0 25 33 22 38 -4z
m4346 15 c9 -15 -29 -53 -47 -46 -22 8 -22 23 1 40 19 15 39 18 46 6z m-2469
-12 c3 -5 -3 -10 -14 -10 -11 0 -23 5 -26 10 -3 6 3 10 14 10 11 0 23 -4 26
-10z m2525 -15 c0 -9 -6 -12 -15 -9 -8 4 -15 10 -15 15 0 5 7 9 15 9 8 0 15
-7 15 -15z m-2720 -5 c0 -5 -4 -10 -9 -10 -6 0 -13 5 -16 10 -3 6 1 10 9 10 9
0 16 -4 16 -10z m294 -7 c4 -5 21 -8 38 -8 17 0 35 -7 41 -16 11 -18 9 -21
-43 -64 -20 -17 -22 -18 -17 -3 3 10 2 20 -3 23 -6 4 -10 17 -10 31 0 17 -5
24 -20 24 -11 0 -20 5 -20 10 0 12 23 13 34 3z m-95 -79 l23 -27 -26 7 c-15 4
-35 2 -46 -4 -16 -9 -22 -8 -26 5 -18 47 38 61 75 19z m2641 -39 c13 -16 8
-18 -27 -9 -13 4 -23 10 -23 15 0 15 37 10 50 -6z m-2485 -75 c32 -46 25 -64
-21 -58 -23 2 -28 7 -26 25 2 14 -4 23 -17 28 -17 5 -19 9 -8 26 18 30 42 23
72 -21z m2555 22 c0 -13 -12 -22 -22 -16 -10 6 -1 24 13 24 5 0 9 -4 9 -8z
m-2570 -127 c0 -30 -25 -34 -39 -6 -12 21 -5 31 21 31 13 0 18 -7 18 -25z
m-282 -3 c2 -7 -3 -12 -12 -12 -9 0 -16 7 -16 16 0 17 22 14 28 -4z m500 -28
c0 -73 -35 -108 -68 -69 -10 12 -8 21 14 49 14 19 26 42 26 50 0 9 6 16 14 16
10 0 14 -13 14 -46z m2689 24 c-3 -8 -6 -5 -6 6 -1 11 2 17 5 13 3 -3 4 -12 1
-19z m-457 -53 c0 -16 -6 -25 -16 -25 -11 0 -14 5 -10 16 3 9 6 20 6 25 0 5 5
9 10 9 6 0 10 -11 10 -25z m-2114 1 c28 -22 6 -41 -24 -20 -12 8 -22 19 -22
25 0 14 23 11 46 -5z m1874 -51 c-7 -9 -15 -13 -17 -11 -7 7 7 26 19 26 6 0 6
-6 -2 -15z m-1743 -11 c9 -23 -13 -40 -32 -24 -8 7 -15 19 -15 26 0 19 39 18
47 -2z m1937 -7 c18 -28 -6 -42 -43 -26 l-31 14 22 17 c26 20 37 19 52 -5z
m2846 3 c0 -5 -4 -10 -10 -10 -5 0 -10 5 -10 10 0 6 5 10 10 10 6 0 10 -4 10
-10z m-4872 -41 c4 -35 -23 -58 -44 -37 -23 22 -8 70 20 66 14 -2 22 -11 24
-29z m1843 -39 c12 0 19 -7 19 -20 0 -11 -4 -20 -10 -20 -5 0 -10 -9 -10 -20
0 -22 -31 -43 -53 -35 -7 3 -20 -1 -27 -10 -7 -8 -16 -15 -21 -15 -15 0 -10
29 7 38 12 7 13 11 5 17 -9 5 -8 12 5 26 12 13 15 28 11 54 l-6 36 30 -26 c17
-14 39 -25 50 -25z m300 37 c-1 -12 -15 -9 -19 4 -3 6 1 10 8 8 6 -3 11 -8 11
-12z m-2215 -28 c3 -6 0 -17 -7 -25 -18 -17 -44 -2 -36 20 7 18 33 21 43 5z
m2112 -7 c13 -9 6 -72 -9 -72 -8 0 -39 28 -39 36 0 11 21 44 28 44 4 0 13 -4
20 -8z m276 -8 c11 -28 6 -52 -11 -58 -19 -8 -33 9 -33 40 0 35 32 49 44 18z
m-2140 -25 c-6 -11 -24 -2 -24 11 0 5 7 7 15 4 8 -4 12 -10 9 -15z m-639 1
c-3 -5 -13 -10 -21 -10 -8 0 -14 5 -14 10 0 6 9 10 21 10 11 0 17 -4 14 -10z
m350 -20 c3 -5 2 -10 -4 -10 -5 0 -13 5 -16 10 -3 6 -2 10 4 10 5 0 13 -4 16
-10z m-94 -36 c11 -14 10 -18 -6 -30 -10 -8 -24 -14 -31 -14 -18 0 -26 30 -13
46 15 18 34 18 50 -2z m-222 -8 c8 -10 9 -16 1 -21 -13 -8 -30 3 -30 21 0 18
14 18 29 0z m325 -2 c23 -9 20 -34 -3 -34 -22 0 -35 15 -26 30 7 12 8 12 29 4z
m211 -14 c16 -17 16 -20 2 -26 -20 -7 -57 13 -57 31 0 22 34 18 55 -5z m89 14
c19 -7 21 -25 5 -41 -8 -8 -18 -8 -35 -1 -29 13 -30 23 -6 37 21 13 17 12 36
5z m306 -9 c0 -12 -19 -12 -23 0 -4 9 -1 12 9 8 7 -3 14 -7 14 -8z m204 3 c15
-47 15 -78 0 -78 -8 0 -17 7 -20 15 -4 8 -14 15 -24 15 -26 0 -35 32 -14 47
23 17 54 17 58 1z m896 -24 c0 -11 -5 -14 -16 -10 -9 3 -18 6 -20 6 -3 0 -2 5
1 10 10 16 35 12 35 -6z m375 -4 c8 -13 -5 -13 -25 0 -13 8 -13 10 2 10 9 0
20 -4 23 -10z m-1935 -10 c-19 -13 -30 -13 -30 0 0 6 10 10 23 10 18 0 19 -2
7 -10z m514 -43 c-8 -5 -24 -5 -36 -1 -21 6 -20 7 8 19 31 13 56 -2 28 -18z
m1044 17 c16 -11 21 -22 17 -35 -5 -14 -2 -19 13 -19 28 0 49 -27 33 -43 -9
-9 -16 -9 -31 1 -14 9 -26 9 -39 3 -24 -13 -58 9 -45 30 4 7 7 28 5 46 -3 37
11 42 47 17z m198 -20 c-3 -9 -6 -18 -6 -20 0 -2 -7 -4 -15 -4 -18 0 -20 26
-2 33 23 10 29 7 23 -9z m-2556 -15 c0 -5 -4 -9 -10 -9 -5 0 -10 7 -10 16 0 8
5 12 10 9 6 -3 10 -10 10 -16z m2866 -6 c-10 -10 -19 5 -10 18 6 11 8 11 12 0
2 -7 1 -15 -2 -18z m-2274 -14 l18 -31 -33 7 c-41 9 -57 22 -50 41 9 25 47 16
65 -17z m2028 21 c12 -7 12 -12 2 -22 -10 -10 -15 -10 -22 2 -19 29 -9 39 20
20z m-2382 -17 c2 -8 -5 -13 -17 -13 -12 0 -21 6 -21 16 0 18 31 15 38 -3z
m2290 -42 c3 -10 -1 -12 -17 -8 -24 6 -25 3 -11 -23 13 -24 -4 -36 -22 -15
-45 50 -46 52 -15 58 36 7 60 3 65 -12z m-1752 -5 c15 -12 17 -18 8 -33 -6
-10 -21 -19 -33 -21 -15 -2 -21 -9 -17 -18 3 -8 1 -14 -4 -14 -13 0 -13 37 0
45 6 3 10 17 10 31 0 28 8 30 36 10z m627 -7 c4 -16 3 -18 -9 -8 -7 6 -11 15
-8 20 8 13 11 11 17 -12z m-488 2 c7 -12 -12 -24 -25 -16 -11 7 -4 25 10 25 5
0 11 -4 15 -9z m-427 -18 c5 -17 -26 -29 -40 -15 -6 6 -7 15 -3 22 9 14 37 9
43 -7z m2286 1 c4 -9 4 -19 2 -21 -8 -8 -26 8 -26 23 0 19 16 18 24 -2z
m-1745 -21 c38 -16 39 -19 39 -66 1 -33 -3 -47 -11 -44 -7 2 -11 13 -9 25 2
13 -5 25 -17 32 -19 10 -58 70 -46 70 3 0 22 -8 44 -17z m-424 -3 c3 -5 1 -10
-4 -10 -6 0 -11 5 -11 10 0 6 2 10 4 10 3 0 8 -4 11 -10z m1053 -32 c5 -25
-25 -23 -38 3 -10 18 -9 20 12 17 12 -2 24 -11 26 -20z m-997 -3 c-1 -15 -24
-12 -29 3 -3 9 2 13 12 10 10 -1 17 -7 17 -13z m554 4 c10 -15 -1 -23 -20 -15
-9 3 -13 10 -10 16 8 13 22 13 30 -1z m1075 -9 c0 -5 -2 -10 -4 -10 -3 0 -8 5
-11 10 -3 6 -1 10 4 10 6 0 11 -4 11 -10z m-360 -30 c0 -22 -20 -26 -38 -8
-19 19 -14 28 13 28 18 0 25 -5 25 -20z m-1036 -51 c-3 -5 -10 -7 -15 -3 -5 3
-7 10 -3 15 3 5 10 7 15 3 5 -3 7 -10 3 -15z m266 1 c0 -5 -2 -10 -4 -10 -3 0
-8 5 -11 10 -3 6 -1 10 4 10 6 0 11 -4 11 -10z m1260 -5 c10 -13 11 -18 1 -28
-10 -9 -15 -8 -26 7 -23 31 1 50 25 21z m-854 -17 c1 -10 -2 -21 -7 -24 -15
-9 -39 15 -32 32 7 20 35 14 39 -8z m214 11 c0 -5 6 -7 13 -3 9 5 9 4 0 -6
-13 -14 -43 -7 -43 10 0 5 7 10 15 10 8 0 15 -5 15 -11z m144 -4 c3 -10 -1
-15 -14 -15 -20 0 -33 13 -23 24 11 11 31 6 37 -9z m366 -15 c8 -5 11 -10 5
-10 -5 0 -17 5 -25 10 -8 5 -10 10 -5 10 6 0 17 -5 25 -10z m-1831 -15 c28
-14 41 -33 41 -60 0 -11 -7 -12 -32 -4 -39 11 -45 17 -53 52 -8 31 2 34 44 12z
m655 -1 c20 -8 21 -44 2 -44 -18 0 -39 27 -31 40 7 12 8 12 29 4z m-117 -20
c-3 -3 -12 -4 -19 -1 -8 3 -5 6 6 6 11 1 17 -2 13 -5z m261 -17 c2 -10 -3 -17
-12 -17 -18 0 -29 16 -21 31 9 14 29 6 33 -14z m92 2 c0 -18 -2 -19 -15 -9 -8
7 -15 16 -15 21 0 5 7 9 15 9 9 0 15 -9 15 -21z m-670 1 c0 -5 -6 -10 -14 -10
-8 0 -18 5 -21 10 -3 6 3 10 14 10 12 0 21 -4 21 -10z m137 -12 c-3 -8 -6 -5
-6 6 -1 11 2 17 5 13 3 -3 4 -12 1 -19z m627 -3 c3 -8 2 -15 -2 -16 -4 0 -18
-2 -32 -4 -39 -4 -46 6 -14 21 38 17 41 16 48 -1z m-541 -15 c3 -14 14 -20 32
-20 14 0 24 -4 20 -10 -8 -14 -46 3 -63 28 -8 12 -10 22 -4 22 5 0 12 -9 15
-20z m977 10 c0 -5 -4 -10 -9 -10 -6 0 -13 5 -16 10 -3 6 1 10 9 10 9 0 16 -4
16 -10z m-1174 -25 c-3 -8 4 -21 17 -31 22 -16 22 -16 -10 -10 -36 6 -83 33
-83 47 0 5 18 9 41 9 32 0 40 -3 35 -15z m115 -15 c10 -6 19 -17 19 -25 0 -24
-34 -17 -58 10 -22 25 -22 25 -1 25 11 0 29 -5 40 -10z m202 3 c-7 -2 -19 -2
-25 0 -7 3 -2 5 12 5 14 0 19 -2 13 -5z m204 -19 c-3 -3 -12 -4 -19 -1 -8 3
-5 6 6 6 11 1 17 -2 13 -5z m-37 -8 c0 -11 -19 -15 -25 -6 -3 5 1 10 9 10 9 0
16 -2 16 -4z m850 -15 c0 -13 -30 -22 -43 -14 -7 4 -2 10 13 14 14 4 26 7 28
8 1 1 2 -3 2 -8z m-1100 -26 c11 -13 8 -15 -19 -15 -30 0 -39 9 -24 23 11 11
30 8 43 -8z m1324 -22 c9 -22 -10 -41 -25 -26 -13 13 -5 43 10 43 5 0 12 -8
15 -17z m-654 -33 c0 -5 -4 -10 -9 -10 -6 0 -13 5 -16 10 -3 6 1 10 9 10 9 0
16 -4 16 -10z m428 -43 c3 -16 1 -17 -17 -7 -25 13 -28 33 -4 28 10 -2 19 -11
21 -21z m-77 -133 c12 -14 11 -16 -5 -13 -11 2 -21 10 -24 17 -5 17 13 15 29
-4z m-351 -88 c-13 -13 -35 7 -25 24 5 8 11 8 21 -1 10 -8 12 -15 4 -23z m165
-16 c9 -15 -13 -40 -35 -40 -26 0 -43 23 -28 38 15 15 55 16 63 2z m-1410
-159 c-3 -6 -11 -8 -17 -5 -6 4 -5 9 3 15 16 10 23 4 14 -10z"/>
<path d="M29022 20238 c3 -7 12 -14 21 -16 12 -2 15 1 11 12 -7 19 -38 22 -32
4z"/>
<path d="M27600 15319 c0 -5 5 -7 10 -4 6 3 10 8 10 11 0 2 -4 4 -10 4 -5 0
-10 -5 -10 -11z"/>
<path d="M27350 14844 c0 -7 27 -34 34 -34 13 0 5 16 -14 28 -11 7 -20 10 -20
6z"/>
<path d="M27304 14786 c-19 -14 -18 -15 5 -40 14 -14 33 -26 44 -26 16 0 18 5
12 27 -4 16 -7 28 -8 28 -1 1 -9 6 -18 13 -12 9 -20 9 -35 -2z"/>
<path d="M27430 14733 c1 -17 43 -73 55 -73 15 0 2 49 -18 68 -28 27 -37 28
-37 5z"/>
<path d="M27737 14369 c-4 -16 -1 -20 16 -17 12 2 23 11 25 21 5 25 -34 22
-41 -4z"/>
<path d="M29890 15780 c0 -5 7 -10 16 -10 8 0 12 5 9 10 -3 6 -10 10 -16 10
-5 0 -9 -4 -9 -10z"/>
<path d="M29693 15453 c-21 -8 -15 -33 7 -33 13 0 20 7 20 20 0 20 -5 23 -27
13z"/>
<path d="M28578 14926 c-4 -24 9 -275 17 -322 5 -29 9 -32 40 -32 47 0 65 17
72 66 6 48 -5 67 -45 75 -17 4 -28 13 -29 24 -10 110 -11 193 -3 193 6 0 10 4
10 9 0 5 -13 9 -29 9 -21 -1 -30 -7 -33 -22z"/>
<path d="M28691 14354 c-11 -31 -21 -61 -21 -67 -1 -24 -41 -60 -72 -63 -18
-2 -37 -12 -42 -22 -5 -9 -25 -31 -44 -49 -21 -19 -32 -38 -29 -47 4 -10 -1
-16 -16 -18 -18 -2 -21 -8 -19 -36 2 -17 -2 -49 -9 -69 -11 -33 -10 -37 12
-54 30 -22 42 -15 34 21 -8 37 10 47 30 16 13 -19 14 -29 6 -45 -14 -26 -13
-78 3 -122 9 -25 10 -43 3 -54 -7 -13 -5 -20 7 -27 13 -7 14 -13 5 -29 -8 -17
-7 -23 8 -35 10 -7 21 -14 25 -14 9 0 58 -45 58 -54 0 -3 -7 -6 -16 -6 -16 0
-71 -39 -109 -76 -20 -20 -29 -21 -149 -16 -107 4 -128 2 -124 -9 4 -11 31
-14 124 -14 l119 0 3 -27 c2 -16 -1 -28 -7 -28 -6 0 -11 -5 -11 -11 0 -6 19
-10 48 -9 76 3 80 2 55 -18 -24 -18 -27 -58 -6 -66 7 -3 13 -17 13 -31 0 -15
5 -35 10 -46 8 -14 7 -19 -2 -19 -17 0 -42 -39 -43 -67 -1 -26 22 -31 31 -8 7
18 58 20 72 2 18 -22 -2 -37 -56 -44 -29 -3 -52 -9 -52 -13 0 -10 79 -23 150
-26 30 -1 58 -2 63 -3 4 -1 7 -10 7 -22 0 -11 5 -30 11 -41 17 -31 40 -138 33
-149 -3 -6 -1 -15 4 -22 11 -13 31 -100 70 -292 5 -27 9 -99 8 -160 -2 -88 -6
-116 -20 -138 -41 -61 -47 -163 -13 -211 12 -17 22 -44 23 -61 1 -16 5 -55 9
-85 11 -86 13 -130 5 -135 -4 -3 -13 -34 -20 -71 -9 -49 -17 -67 -32 -73 -11
-4 -19 -11 -19 -16 0 -16 -32 -5 -46 15 -13 18 -57 25 -47 8 3 -5 -1 -11 -10
-14 -17 -6 -55 12 -73 35 -11 14 -13 13 -19 -7 -5 -19 -11 -22 -28 -17 -11 4
-36 8 -55 9 -52 2 -61 26 -27 76 15 24 41 47 57 53 17 7 27 17 25 24 -4 9 4
13 24 13 20 0 30 5 30 15 0 8 -5 15 -10 15 -6 0 -28 11 -49 25 -30 19 -38 29
-34 45 4 14 -5 30 -32 54 -36 33 -36 35 -25 75 6 23 20 45 32 52 21 11 21 12
3 25 -24 18 -30 118 -8 135 17 15 17 28 -1 48 -21 25 -30 63 -14 60 7 -1 21 1
31 6 14 6 15 10 6 21 -6 8 -18 14 -26 14 -8 0 -13 6 -10 13 2 6 16 11 31 9 25
-3 26 -1 16 18 -9 16 -8 25 0 35 9 11 8 22 -4 46 -20 39 -20 39 0 39 13 0 14
3 4 15 -10 12 -9 16 4 21 11 4 22 -1 31 -12 13 -17 16 -17 25 -4 18 27 11 38
-28 45 -51 8 -77 25 -39 25 37 0 34 14 -7 34 -18 9 -36 25 -39 36 -7 26 -105
70 -157 70 -28 0 -43 6 -54 21 -31 44 20 85 93 74 42 -7 44 -8 23 -18 -26 -12
-24 -34 4 -29 10 2 24 -4 31 -14 7 -10 16 -14 20 -10 14 14 9 31 -12 44 -18
12 -16 13 17 8 21 -2 40 -1 43 4 6 10 -19 20 -50 20 -28 0 -75 20 -75 31 0 13
36 29 67 30 27 1 27 1 4 8 -14 4 -26 11 -28 18 -4 12 60 53 83 53 8 0 14 4 14
9 0 12 -59 22 -150 26 -65 3 -304 41 -382 60 -31 8 -34 1 -47 -96 -14 -107
-70 -410 -87 -474 -8 -33 -17 -92 -19 -130 -4 -73 -5 -76 -24 -136 -18 -58
-14 -74 24 -92 19 -9 50 -38 70 -65 19 -27 46 -54 60 -60 14 -7 25 -20 25 -31
0 -11 10 -25 21 -32 30 -16 55 -45 159 -186 88 -118 98 -144 64 -157 -8 -3
-14 -17 -14 -31 0 -14 -4 -25 -9 -25 -37 0 -171 82 -171 105 0 21 -137 141
-212 185 -36 22 -69 40 -71 40 -7 0 -28 -128 -28 -175 0 -22 -7 -86 -15 -142
-14 -97 -12 -133 7 -133 4 0 6 -6 3 -14 -14 -36 48 -27 65 10 12 27 35 31 58
9 8 -9 23 -13 33 -10 10 3 21 1 24 -4 6 -8 63 -41 73 -41 1 0 3 13 3 29 0 47
19 48 61 2 37 -40 50 -71 30 -71 -5 0 -16 -13 -24 -29 -14 -27 -13 -31 3 -46
23 -21 100 -39 112 -27 6 6 1 16 -13 26 l-23 16 27 0 c19 0 37 10 53 29 13 16
38 34 54 40 28 9 30 8 30 -13 0 -13 -7 -27 -15 -30 -12 -4 -13 -10 -6 -25 7
-13 7 -29 -1 -51 -8 -25 -8 -34 1 -40 7 -4 11 -16 9 -26 -3 -21 6 -22 100 -9
42 6 52 11 52 27 0 11 -4 16 -10 13 -16 -10 -80 6 -80 21 0 21 18 26 53 14 23
-9 47 -9 87 -2 49 9 59 8 94 -11 l39 -22 -32 -3 c-34 -4 -40 -22 -16 -42 23
-19 14 -53 -15 -60 -24 -6 -24 -6 9 -19 36 -15 51 -6 51 31 0 20 37 21 44 1
11 -28 35 -13 38 25 4 46 28 50 41 6 7 -25 17 -33 55 -44 26 -7 60 -14 76 -14
31 -1 94 -66 63 -66 -9 0 -19 5 -22 11 -14 21 -57 30 -74 16 -9 -8 -29 -17
-44 -21 -17 -4 -31 -16 -37 -31 -6 -15 -17 -25 -29 -25 -10 0 -22 -7 -25 -16
-9 -23 -8 -24 12 -24 10 0 23 -5 29 -11 15 -15 173 -16 173 -1 0 4 -10 12 -22
17 -12 6 -23 16 -26 23 -5 15 30 16 45 1 8 -8 18 -6 37 6 20 14 24 21 16 35
-13 25 -13 30 5 30 8 0 15 -9 15 -20 0 -11 7 -20 15 -20 26 0 27 -25 5 -64
-12 -20 -17 -36 -11 -36 6 0 11 -7 11 -15 0 -8 -9 -15 -20 -15 -36 0 -22 -27
18 -35 20 -3 54 -20 74 -36 44 -34 48 -35 48 -9 0 12 -9 22 -23 25 -18 5 -23
13 -24 41 -1 20 1 33 4 30 3 -3 13 -2 22 3 11 6 24 0 43 -20 22 -24 24 -30 12
-40 -16 -13 -5 -32 29 -50 17 -10 18 -7 15 28 -2 34 -17 71 -41 111 -6 8 -14
9 -26 3 -23 -13 -46 2 -37 24 5 14 14 16 40 12 37 -6 51 8 35 34 -5 8 -9 35
-9 61 0 26 -4 49 -9 52 -12 8 -8 60 4 64 6 1 12 -14 15 -35 3 -24 11 -38 20
-39 8 -1 23 -2 33 -3 23 -1 22 -22 -3 -28 -23 -6 -27 -23 -5 -23 12 0 35 -28
35 -44 0 -2 -10 -6 -22 -8 -15 -2 -22 -9 -19 -18 2 -8 13 -51 23 -95 33 -132
26 -125 109 -124 39 1 76 -4 82 -10 6 -6 17 -11 24 -11 15 0 13 12 -24 135
-13 44 -30 103 -38 130 -8 28 -23 82 -34 120 -11 39 -28 97 -37 130 -21 78
-48 176 -69 245 -9 30 -20 73 -25 95 -5 22 -27 99 -50 170 -23 72 -52 164 -65
205 -13 41 -44 140 -69 220 -25 80 -48 159 -52 175 -8 41 -55 188 -64 200 -8
12 -24 67 -45 150 -8 33 -23 87 -35 119 -11 33 -20 70 -20 84 0 13 -12 51 -27
84 l-26 59 21 29 c29 39 28 45 -12 68 -34 20 -37 29 -35 117 1 37 -1 80 -3
104 -4 29 25 52 44 33 9 -9 8 -19 -5 -48 -19 -39 -15 -54 13 -54 33 0 63 93
34 104 -28 11 -4 24 35 19 61 -8 61 12 -1 75 -31 32 -58 65 -61 75 -10 29 -27
19 -21 -12 6 -27 4 -29 -36 -36 -23 -4 -43 -5 -46 -3 -2 3 7 17 21 32 26 28
26 50 0 39 -25 -9 -43 14 -36 45 15 66 43 79 54 25 3 -16 16 -34 28 -41 21
-13 21 -13 14 25 -4 21 -7 46 -7 56 0 10 -3 29 -8 42 -7 18 -14 21 -35 17 -25
-4 -26 -3 -16 17 7 11 18 21 26 21 28 0 43 47 60 190 9 80 23 184 31 231 8 48
14 109 13 135 -1 49 -1 49 -10 14 -8 -34 -43 -249 -58 -358 -8 -59 -25 -86
-35 -54 -4 10 -2 31 3 46 14 35 11 366 -3 389 -6 9 -14 17 -17 17 -3 0 -16
-25 -28 -56z m-21 -604 c0 -11 -30 -21 -40 -15 -17 10 1 33 21 28 10 -3 19 -9
19 -13z m160 -265 c0 -8 -9 -15 -20 -15 -11 0 -20 7 -20 15 0 8 9 15 20 15 11
0 20 -7 20 -15z m-229 -36 c21 -18 21 -20 4 -14 -11 4 -28 10 -37 12 -10 3
-15 9 -12 14 8 14 20 11 45 -12z m99 -114 c0 -38 -3 -45 -19 -45 -30 0 -35 17
-16 56 22 47 35 43 35 -11z m-70 5 c13 -9 13 -11 0 -20 -17 -11 -53 -13 -63
-3 -10 9 13 33 32 33 9 0 23 -5 31 -10z m-657 -724 c6 -15 -11 -36 -29 -36
-14 0 -27 28 -18 41 8 14 41 11 47 -5z m342 -316 c3 -5 -1 -10 -9 -10 -9 0
-16 5 -16 10 0 6 4 10 9 10 6 0 13 -4 16 -10z m-126 -224 c14 -26 8 -46 -14
-46 -17 0 -25 22 -18 49 7 27 17 27 32 -3z m829 -129 c2 -11 -3 -17 -16 -17
-20 0 -36 23 -24 34 11 12 37 1 40 -17z m-566 -19 c-7 -7 -12 -20 -12 -30 0
-10 -4 -18 -10 -18 -15 0 -12 27 6 44 8 9 18 16 22 16 3 0 1 -5 -6 -12z m98
-148 c0 -5 -4 -10 -10 -10 -5 0 -10 5 -10 10 0 6 5 10 10 10 6 0 10 -4 10 -10z
m600 -64 c0 -30 -13 -40 -40 -31 -25 8 -26 31 -2 44 28 17 42 12 42 -13z
m-162 -34 c2 -7 -3 -12 -12 -12 -9 0 -16 7 -16 16 0 17 22 14 28 -4z m-538
-88 c0 -9 -5 -14 -12 -12 -18 6 -21 28 -4 28 9 0 16 -7 16 -16z m328 -48 c3
-13 -1 -17 -14 -14 -11 2 -20 11 -22 22 -3 13 1 17 14 14 11 -2 20 -11 22 -22z
m-474 -85 c16 -18 13 -51 -5 -51 -14 0 -41 48 -34 60 9 15 20 12 39 -9z m125
-46 c1 -10 -4 -22 -12 -27 -9 -5 -13 -16 -10 -28 6 -22 -3 -25 -27 -10 -13 8
-13 13 -2 30 7 11 10 26 6 32 -7 11 15 30 31 25 6 -2 12 -12 14 -22z m96 -113
c16 -11 16 -32 1 -32 -17 0 -38 24 -29 33 8 9 15 9 28 -1z m233 -35 c24 9 11
-14 -15 -26 -24 -11 -29 -10 -45 9 -24 29 -13 43 20 26 15 -7 33 -11 40 -9z
m382 9 c0 -8 10 -22 22 -30 21 -15 22 -17 5 -33 -17 -17 -19 -17 -33 1 -16 23
-19 76 -4 76 6 0 10 -6 10 -14z m113 -77 c-6 -6 -17 -8 -24 -3 -9 5 -8 9 7 14
23 9 31 3 17 -11z m-133 -140 c0 -5 -7 -9 -15 -9 -8 0 -15 7 -15 15 0 9 6 12
15 9 8 -4 15 -10 15 -15z m238 -73 c6 -27 -14 -42 -33 -26 -13 10 -15 9 -16
-6 0 -11 -3 -14 -5 -8 -3 6 0 23 6 38 11 31 43 32 48 2z m-513 -24 c-3 -3 -11
0 -18 7 -9 10 -8 11 6 5 10 -3 15 -9 12 -12z m520 -113 c12 -19 -5 -23 -22 -6
-16 16 -16 17 -1 17 9 0 20 -5 23 -11z m-11 -45 c9 -3 16 -13 16 -21 0 -10 -6
-13 -16 -9 -9 3 -18 6 -20 6 -2 0 -4 7 -4 15 0 17 2 18 24 9z"/>
<path d="M27941 13724 c0 -11 3 -14 6 -6 3 7 2 16 -1 19 -3 4 -6 -2 -5 -13z"/>
<path d="M28012 13424 c-12 -8 -22 -24 -22 -35 0 -26 -36 -25 -43 1 -4 17 -14
20 -66 20 -34 0 -61 -3 -61 -7 1 -12 44 -57 68 -70 30 -18 62 -16 62 2 0 22
21 18 27 -6 4 -14 11 -18 22 -13 38 15 53 15 85 0 19 -9 40 -16 48 -16 7 0 33
-11 58 -23 25 -13 79 -32 120 -42 41 -9 85 -21 98 -26 44 -17 97 14 62 36 -8
5 -8 11 0 20 9 11 6 17 -12 29 -31 20 -111 30 -135 18 -12 -7 -33 -8 -58 -2
-24 5 -46 5 -57 -1 -14 -7 -24 -7 -34 1 -19 16 -7 32 18 24 13 -4 24 0 33 13
21 27 19 32 -22 38 -21 3 -46 10 -55 16 -10 5 -26 9 -36 9 -10 0 -27 7 -38 15
-25 19 -35 18 -62 -1z"/>
<path d="M28275 13413 c17 -17 78 -34 88 -24 12 12 -2 19 -54 27 -29 4 -41 3
-34 -3z"/>
<path d="M29038 13333 c7 -3 16 -2 19 1 4 3 -2 6 -13 5 -11 0 -14 -3 -6 -6z"/>
<path d="M28873 13288 c-26 -34 -45 -148 -25 -148 17 0 30 25 42 84 12 59 4
91 -17 64z"/>
<path d="M29103 13233 c-13 -2 -23 -8 -23 -13 0 -16 21 -22 34 -11 8 7 19 10
26 9 7 -2 15 3 17 10 5 12 -10 13 -54 5z"/>
<path d="M29505 13200 c3 -5 8 -10 11 -10 2 0 4 5 4 10 0 6 -5 10 -11 10 -5 0
-7 -4 -4 -10z"/>
<path d="M28110 13150 c0 -11 -7 -20 -15 -20 -27 0 -16 -20 21 -35 20 -8 57
-15 83 -14 l46 1 -35 10 c-60 17 -81 28 -75 38 3 6 17 7 30 4 41 -10 53 8 14
22 -51 19 -69 17 -69 -6z"/>
<path d="M29710 13160 c0 -5 5 -10 11 -10 5 0 7 5 4 10 -3 6 -8 10 -11 10 -2
0 -4 -4 -4 -10z"/>
<path d="M27980 13140 c0 -5 9 -10 21 -10 11 0 17 5 14 10 -3 6 -13 10 -21 10
-8 0 -14 -4 -14 -10z"/>
<path d="M28284 13099 c-9 -16 15 -29 54 -29 40 0 40 5 2 25 -35 18 -46 19
-56 4z"/>
<path d="M28428 13073 c7 -3 16 -2 19 1 4 3 -2 6 -13 5 -11 0 -14 -3 -6 -6z"/>
<path d="M28583 12982 c-18 -9 -33 -21 -33 -25 0 -5 5 -5 10 -2 6 3 14 -5 20
-19 15 -41 55 -35 70 10 10 30 10 38 -1 45 -19 12 -29 10 -66 -9z"/>
<path d="M28480 12922 c0 -9 72 -72 82 -72 16 0 15 17 0 38 -16 21 -82 48 -82
34z"/>
<path d="M28680 12850 c0 -5 5 -10 10 -10 6 0 10 5 10 10 0 6 -4 10 -10 10 -5
0 -10 -4 -10 -10z"/>
<path d="M28621 12780 c-16 -9 -6 -46 14 -54 24 -9 46 5 43 27 -3 22 -38 39
-57 27z"/>
<path d="M28580 12695 c-10 -13 -9 -15 9 -15 12 0 21 6 21 15 0 8 -4 15 -9 15
-5 0 -14 -7 -21 -15z"/>
<path d="M28626 12641 c-3 -5 0 -11 8 -14 15 -6 26 1 26 15 0 11 -27 10 -34
-1z"/>
<path d="M28719 12513 c0 -10 -2 -32 -4 -48 -3 -23 2 -38 21 -59 24 -25 25
-30 14 -57 -15 -34 -2 -56 25 -45 13 5 15 12 9 34 -4 15 -8 59 -9 98 -1 39 -5
76 -9 83 -11 18 -46 13 -47 -6z"/>
<path d="M28565 12511 c-3 -5 -1 -12 5 -16 5 -3 10 1 10 9 0 18 -6 21 -15 7z"/>
<path d="M27780 12000 c33 -26 52 -25 21 0 -13 11 -28 20 -35 20 -6 0 0 -9 14
-20z"/>
<path d="M27834 11972 c10 -16 138 -104 143 -98 3 2 -8 13 -24 22 -15 10 -30
21 -33 24 -12 13 -92 61 -86 52z"/>
<path d="M28786 11772 c-13 -12 -5 -22 19 -22 14 0 25 4 25 9 0 10 -36 21 -44
13z"/>
<path d="M27386 11532 c-7 -12 60 -40 74 -32 8 5 0 13 -20 24 -37 18 -47 20
-54 8z"/>
<path d="M27870 11411 c0 -11 50 -61 61 -61 17 0 9 19 -18 45 -29 26 -43 31
-43 16z"/>
<path d="M27342 11358 c-8 -21 -8 -36 -2 -42 7 -7 10 -1 10 17 0 15 7 30 15
33 8 4 12 10 9 15 -10 16 -19 9 -32 -23z"/>
<path d="M27816 11348 c-9 -36 -7 -48 9 -48 24 0 39 38 21 55 -19 20 -23 19
-30 -7z"/>
<path d="M28210 11229 c0 -24 23 -21 28 4 2 10 -3 17 -12 17 -10 0 -16 -9 -16
-21z"/>
<path d="M27940 11231 c0 -8 43 -41 55 -41 3 0 5 5 5 10 0 6 -6 10 -14 10 -8
0 -16 7 -20 15 -6 16 -26 21 -26 6z"/>
<path d="M28015 11180 c3 -5 10 -10 16 -10 5 0 9 5 9 10 0 6 -7 10 -16 10 -8
0 -12 -4 -9 -10z"/>
<path d="M28160 11160 c0 -5 7 -10 16 -10 8 0 12 5 9 10 -3 6 -10 10 -16 10
-5 0 -9 -4 -9 -10z"/>
<path d="M27227 11103 c-12 -11 -8 -23 8 -23 8 0 15 7 15 15 0 16 -12 20 -23
8z"/>
<path d="M28372 11012 c-18 -14 -22 -24 -17 -45 9 -34 19 -34 67 0 32 21 36
29 26 39 -23 22 -52 24 -76 6z"/>
<path d="M27430 10981 c0 -20 -4 -22 -25 -17 -34 9 -32 -8 4 -33 l29 -21 5 38
c2 20 0 41 -4 47 -5 5 -9 0 -9 -14z"/>
<path d="M28677 10914 c-8 -8 1 -24 14 -24 5 0 9 7 9 15 0 15 -12 20 -23 9z"/>
<path d="M28873 10822 c1 -13 9 -18 33 -18 28 0 31 2 23 18 -5 10 -21 18 -34
18 -17 0 -23 -5 -22 -18z"/>
<path d="M27424 10799 c-8 -14 11 -33 25 -25 16 10 13 36 -3 36 -8 0 -18 -5
-22 -11z"/>
<path d="M27540 10767 c0 -8 3 -17 7 -21 4 -4 8 -16 8 -28 0 -12 9 -24 23 -29
14 -5 22 -5 22 3 0 7 5 6 15 -2 29 -24 14 5 -24 48 -40 44 -51 51 -51 29z"/>
<path d="M29367 10661 c6 -23 29 -29 35 -9 3 9 6 9 12 0 4 -7 3 -12 -3 -12 -6
0 -13 -16 -17 -35 -5 -29 -1 -41 26 -75 17 -22 29 -40 25 -40 -3 0 2 -13 11
-29 14 -24 21 -28 36 -20 23 13 25 77 2 94 -14 10 -14 15 -4 32 29 46 -12 93
-95 109 -31 5 -33 4 -28 -15z m103 -120 c0 -6 -4 -13 -10 -16 -5 -3 -10 1 -10
9 0 9 5 16 10 16 6 0 10 -4 10 -9z"/>
<path d="M27652 10585 l-21 -24 24 -15 c36 -24 56 -12 43 25 -14 40 -22 42
-46 14z"/>
<path d="M27777 10456 c-6 -16 1 -26 19 -26 7 0 10 8 7 20 -6 23 -19 26 -26 6z"/>
<path d="M29415 10410 c-3 -5 -1 -10 4 -10 6 0 11 5 11 10 0 6 -2 10 -4 10 -3
0 -8 -4 -11 -10z"/>
<path d="M27878 10382 c-11 -14 -10 -15 6 -9 11 5 28 1 42 -8 13 -9 24 -11 24
-6 0 5 -13 16 -30 24 -26 13 -31 13 -42 -1z"/>
<path d="M28200 10240 c0 -11 7 -20 15 -20 8 0 15 6 15 14 0 8 -7 16 -15 20
-10 4 -15 -1 -15 -14z"/>
<path d="M29110 10205 c-15 -18 -13 -20 18 -29 25 -8 31 14 8 33 -10 9 -16 8
-26 -4z"/>
<path d="M28805 10150 c-3 -4 5 -10 17 -13 22 -6 38 -1 38 11 0 10 -49 12 -55
2z"/>
<path d="M28620 10115 c-5 -6 -7 -15 -3 -19 4 -4 0 -4 -9 -1 -11 4 -15 2 -13
-7 14 -59 24 -68 54 -49 12 8 13 15 3 35 -10 22 -9 26 10 32 13 4 24 1 29 -7
7 -11 9 -10 9 4 0 9 -3 18 -7 19 -32 6 -65 3 -73 -7z"/>
<path d="M29004 10093 c-29 -27 -62 -89 -52 -98 10 -11 88 31 88 47 0 9 4 18
9 20 10 3 3 58 -8 58 -4 0 -20 -12 -37 -27z"/>
<path d="M28780 10100 c0 -5 7 -10 16 -10 8 0 12 5 9 10 -3 6 -10 10 -16 10
-5 0 -9 -4 -9 -10z"/>
<path d="M28044 10089 c-3 -6 0 -15 7 -20 22 -14 29 -11 29 11 0 21 -24 27
-36 9z"/>
<path d="M28865 10041 c-7 -12 39 -63 48 -54 4 3 7 19 7 35 0 23 -4 28 -24 28
-14 0 -27 -4 -31 -9z"/>
<path d="M28715 9930 c-3 -5 -5 -10 -3 -11 30 -7 48 -7 48 0 0 5 -7 12 -16 15
-21 8 -22 8 -29 -4z"/>
<path d="M26970 13533 c-51 -20 -189 -144 -326 -292 l-59 -65 50 35 c28 19 97
81 155 139 58 58 125 121 150 140 70 52 75 60 30 43z"/>
<path d="M30285 12400 c3 -5 8 -10 11 -10 2 0 4 5 4 10 0 6 -5 10 -11 10 -5 0
-7 -4 -4 -10z"/>
<path d="M30316 12360 c7 -28 12 -35 18 -29 2 2 -2 15 -10 29 l-15 25 7 -25z"/>
<path d="M30295 12170 c3 -5 11 -10 16 -10 6 0 7 5 4 10 -3 6 -11 10 -16 10
-6 0 -7 -4 -4 -10z"/>
</g>
</svg>
