<?xml version="1.0" standalone="no"?>
<!DOCTYPE svg PUBLIC "-//W3C//DTD SVG 20010904//EN"
 "http://www.w3.org/TR/2001/REC-SVG-20010904/DTD/svg10.dtd">
<svg version="1.0" xmlns="http://www.w3.org/2000/svg"
 width="1137.000000pt" height="643.000000pt" viewBox="0 0 1137.000000 643.000000"
 preserveAspectRatio="xMidYMid meet">
<metadata>
Created by potrace 1.15, written by Peter Selinger 2001-2017
</metadata>
<g transform="translate(0.000000,643.000000) scale(0.100000,-0.100000)"
fill="#000000" stroke="none">
<path d="M2252 6419 c-56 -11 -137 -56 -169 -94 -15 -16 -38 -55 -52 -85 -23
-50 -26 -69 -29 -208 l-4 -152 3848 2 3849 3 3 105 c6 229 -45 342 -187 409
l-56 26 -3580 1 c-1969 1 -3599 -2 -3623 -7z m511 -179 c30 -24 50 -78 42
-113 -4 -14 -20 -38 -36 -53 -84 -81 -220 13 -175 120 8 19 24 41 37 50 33 23
100 21 132 -4z m326 -6 c88 -73 10 -218 -100 -185 -69 21 -100 97 -65 160 31
55 114 68 165 25z"/>
<path d="M8366 4719 c-21 -5 -70 -26 -108 -46 -58 -30 -73 -35 -89 -25 -28 18
-29 16 -29 -35 0 -27 -7 -57 -15 -67 -20 -27 -19 -50 5 -71 11 -10 20 -31 20
-46 0 -31 15 -45 45 -41 29 4 61 -35 88 -104 l23 -59 90 0 c102 0 156 22 162
66 2 13 15 51 29 84 27 62 36 153 20 207 -4 16 -26 39 -55 58 -26 18 -51 39
-56 47 -8 14 -67 44 -83 42 -4 -1 -25 -5 -47 -10z"/>
<path d="M7270 4403 c-8 -3 -38 -19 -67 -36 -66 -39 -65 -48 32 -178 40 -53
81 -115 91 -138 17 -37 31 -48 139 -106 141 -75 336 -161 390 -171 l37 -7 -6
-41 c-4 -22 -11 -117 -16 -211 -5 -93 -14 -197 -20 -230 -5 -33 -10 -60 -10
-61 0 -1 39 -4 86 -8 50 -4 105 -14 130 -26 43 -18 44 -20 44 -64 0 -55 -4
-55 -90 -20 -34 14 -84 26 -111 26 -33 1 -49 6 -50 15 -1 7 -3 18 -4 23 -1 6
-3 16 -4 23 -1 8 -4 7 -11 -3 -5 -8 -10 -44 -10 -80 0 -36 -7 -106 -15 -155
-8 -50 -14 -134 -14 -188 0 -108 5 -114 64 -78 41 24 119 32 381 36 190 3 241
8 389 34 94 17 181 35 195 40 14 5 66 17 116 26 l92 17 -25 82 c-36 118 -72
205 -104 253 -33 47 -44 72 -70 163 -26 87 -28 254 -4 300 9 17 21 59 26 93 9
53 15 66 53 101 65 61 79 133 55 276 -7 36 -11 77 -10 93 1 15 -3 27 -9 27 -5
0 -8 22 -6 50 l3 50 -44 21 c-35 17 -51 20 -75 13 -41 -12 -73 -55 -60 -80 5
-11 12 -45 16 -77 6 -52 5 -57 -10 -49 -28 16 -113 -17 -130 -50 -8 -15 -18
-28 -22 -28 -4 0 -34 24 -67 54 -33 29 -74 56 -90 60 -39 9 -116 -15 -161 -49
-34 -26 -40 -27 -129 -23 -55 2 -99 9 -108 17 -24 19 -49 6 -77 -40 -14 -22
-32 -45 -41 -49 -24 -13 -154 -3 -188 15 -17 8 -38 15 -48 15 -10 0 -40 11
-67 25 -27 14 -58 25 -68 25 -25 0 -88 60 -188 180 -46 55 -86 100 -90 99 -3
0 -12 -3 -20 -6z"/>
<path d="M1920 4338 c-15 -6 -57 -7 -104 -4 -89 8 -106 0 -106 -47 0 -17 -8
-39 -17 -50 -17 -18 -17 -20 17 -49 19 -16 31 -28 25 -27 -22 3 -36 -1 -30
-11 3 -5 2 -10 -3 -10 -5 0 -16 -18 -25 -40 -8 -22 -11 -40 -6 -40 6 0 6 -7 0
-18 -11 -21 0 -81 23 -127 14 -28 60 -70 76 -70 3 0 14 -8 24 -17 10 -11 13
-18 6 -18 -7 0 -10 -6 -7 -14 3 -7 -1 -24 -10 -36 -9 -12 -19 -52 -24 -89 -14
-104 -24 -147 -32 -134 -4 6 -3 23 2 37 6 13 13 59 17 101 4 41 11 78 16 82
24 14 -19 20 -51 7 -30 -13 -52 -13 -146 -3 l-110 12 -75 -73 c-41 -40 -90
-80 -109 -87 -19 -8 -49 -26 -66 -39 -41 -31 -65 -31 -65 0 0 13 -11 43 -24
67 -14 24 -32 69 -41 99 -34 112 -57 161 -84 176 -14 8 -18 13 -8 10 22 -7 22
0 -4 35 -11 16 -18 29 -15 29 3 0 -4 11 -16 25 -12 14 -28 23 -35 21 -7 -3
-15 0 -19 6 -5 7 -2 8 6 3 8 -5 11 -4 7 2 -3 5 -23 16 -44 25 -108 44 -211 60
-240 37 -14 -12 -16 -12 -8 0 5 10 4 12 -3 7 -15 -9 -15 -33 0 -42 7 -5 8 -3
3 7 -5 8 5 1 20 -14 31 -30 140 -89 149 -80 3 3 13 -2 22 -11 9 -10 23 -15 31
-12 8 3 12 2 9 -3 -3 -5 5 -12 19 -15 25 -6 69 -48 71 -67 1 -5 2 -13 3 -18 2
-16 29 -6 50 19 11 14 20 20 21 14 0 -6 -11 -21 -25 -34 -14 -13 -25 -19 -25
-14 0 5 -6 0 -12 -11 -12 -19 -13 -18 -18 10 -6 35 -23 40 -25 8 -1 -12 2 -20
7 -17 4 3 8 0 8 -5 0 -6 -16 -11 -35 -11 l-35 0 16 -37 c16 -38 29 -77 95
-283 45 -142 57 -154 180 -169 103 -13 142 -9 174 19 11 10 37 27 58 39 l37
21 -5 -23 c-2 -12 -12 -62 -20 -112 -26 -144 -44 -205 -77 -252 -16 -24 -54
-96 -85 -159 -41 -86 -56 -129 -60 -175 -7 -69 -14 -59 116 -146 l84 -56 22
25 c12 14 31 29 43 32 28 9 66 62 118 163 52 103 70 163 78 268 22 279 60 520
86 549 5 4 13 -1 19 -13 7 -12 16 -21 22 -21 6 0 22 -9 36 -20 38 -30 63 -25
152 30 79 49 101 58 101 42 0 -18 51 -397 56 -416 6 -24 -30 -96 -81 -163
l-35 -46 0 -116 c0 -186 35 -280 147 -400 l53 -56 20 24 c14 16 19 33 16 50
-3 14 -8 51 -11 83 -6 50 -9 57 -33 63 -69 17 -84 75 -27 102 l36 17 -7 56
c-4 30 -10 64 -14 76 -5 11 -4 40 1 65 5 24 14 72 19 107 6 35 17 76 25 92 8
16 15 46 15 67 0 58 11 68 49 49 32 -17 54 -45 66 -85 4 -14 20 -45 35 -70 40
-66 41 -101 5 -138 -19 -18 -36 -50 -43 -80 -14 -53 -23 -65 -85 -112 -31 -25
-35 -31 -22 -38 19 -11 95 -102 95 -113 0 -5 -10 -11 -22 -13 -17 -3 -15 -5 8
-6 17 0 37 -8 44 -16 17 -21 26 -12 64 63 19 37 52 90 75 117 23 28 46 68 52
90 6 22 22 65 36 95 21 44 26 69 25 123 -2 83 -22 121 -126 241 -19 22 -43 55
-53 75 -10 20 -33 62 -52 93 -41 71 -55 134 -35 162 15 22 19 73 6 93 -4 6
-20 15 -35 18 -23 6 -28 12 -23 29 3 11 9 37 12 56 5 32 3 37 -20 48 -47 21
-59 63 -51 178 6 90 4 107 -14 148 -16 38 -28 50 -65 66 -35 15 -50 28 -63 57
-29 63 -41 73 -92 72 -25 0 -57 -5 -71 -11z"/>
<path d="M10291 2737 c-33 -315 -121 -616 -266 -912 -82 -169 -151 -282 -255
-420 -39 -53 -70 -100 -68 -106 4 -13 149 179 223 296 181 287 298 618 360
1013 25 155 33 238 24 247 -3 2 -11 -51 -18 -118z"/>
<path d="M4182 2454 c-10 -5 -82 -105 -119 -168 -25 -42 -8 -116 27 -116 11 0
25 -9 32 -20 16 -25 36 -25 68 0 46 36 100 21 100 -27 0 -18 9 -25 43 -34 54
-16 67 -26 67 -55 0 -30 20 -42 35 -21 10 13 22 16 58 11 60 -8 93 1 113 31
15 24 15 29 -1 71 -11 30 -15 57 -10 80 5 27 1 45 -18 77 -14 23 -30 61 -36
84 -16 58 -51 76 -156 79 -44 1 -105 5 -135 8 -30 3 -61 3 -68 0z"/>
<path d="M1713 1977 c2 -13 -27 -14 -56 -2 -14 6 -16 4 -11 -10 6 -15 4 -16
-14 -6 -27 15 -43 14 -39 -1 1 -8 -7 -12 -22 -10 -24 4 -24 3 -8 -22 12 -18
14 -26 5 -26 -9 0 -9 -3 0 -12 7 -7 12 -22 12 -35 0 -13 4 -31 9 -41 9 -16 21
-47 26 -64 2 -5 3 -17 4 -29 1 -14 6 -19 16 -15 17 6 21 -9 5 -19 -6 -4 -7
-13 -1 -24 6 -10 15 -76 21 -147 6 -71 15 -165 21 -208 5 -46 5 -82 0 -85 -5
-3 -15 -91 -23 -196 -17 -208 -21 -235 -41 -250 -8 -5 -18 -19 -24 -30 -15
-28 -36 -162 -30 -186 3 -12 1 -17 -5 -12 -8 4 -9 -8 -5 -38 4 -26 3 -36 -2
-24 -8 19 -8 19 -15 -3 -11 -34 3 -81 30 -99 32 -20 116 -13 145 13 19 17 21
28 19 164 -2 136 9 273 25 313 13 31 41 -7 53 -71 21 -107 32 -213 21 -206 -5
2 -8 -34 -8 -81 l0 -85 44 0 c24 0 56 5 70 10 23 9 26 14 20 38 -4 15 -8 38
-10 52 -15 126 -16 150 -6 150 6 0 11 -19 12 -42 0 -24 6 -79 14 -123 l13 -80
1 118 c1 91 -3 127 -15 153 -21 45 -31 50 -26 13 2 -16 0 -29 -5 -29 -5 0 -10
11 -11 25 -1 14 -9 42 -18 63 -12 30 -16 84 -17 287 0 145 4 284 11 330 6 44
18 135 27 203 15 124 24 152 89 297 l36 80 -43 7 c-77 12 -297 8 -294 -5z"/>
<path d="M4522 1878 c-7 -57 -12 -131 -12 -165 0 -34 -7 -88 -15 -120 -10 -37
-16 -109 -17 -200 -2 -121 -4 -143 -17 -145 -9 -1 -54 -2 -101 -2 -47 -1 -93
-5 -102 -10 -17 -7 -18 0 -18 83 0 50 -1 91 -3 91 -2 0 -30 -15 -63 -32 -55
-30 -60 -35 -53 -58 4 -14 7 -36 8 -50 1 -24 -2 -25 -38 -22 l-39 4 -7 -59
c-3 -32 -8 -70 -10 -85 -4 -25 0 -29 36 -39 37 -12 39 -15 34 -41 -6 -25 -4
-28 22 -29 15 -1 45 -3 66 -4 31 -2 37 1 37 17 0 16 5 19 23 14 50 -13 202
-27 252 -23 30 2 97 19 149 37 95 33 95 33 140 16 60 -23 92 -50 119 -99 19
-36 22 -58 22 -157 0 -65 5 -124 12 -135 6 -11 16 -45 22 -76 14 -68 30 -93
54 -83 22 8 22 32 0 56 -14 16 -15 22 -5 36 7 9 16 27 22 40 6 13 18 22 32 22
13 0 40 5 61 11 29 8 37 15 37 33 0 12 -46 89 -103 172 -82 118 -106 161 -115
204 -7 32 -13 176 -16 341 -4 319 -2 309 -79 395 -37 41 -60 55 -133 83 -49
19 -102 42 -119 51 -70 41 -70 41 -83 -72z"/>
<path d="M4124 1862 c-8 -5 11 -51 60 -141 l71 -135 7 68 c4 38 12 82 19 98 9
22 9 38 0 67 -9 31 -17 40 -42 45 -42 8 -101 7 -115 -2z"/>
<path d="M3685 696 c-9 -22 -15 -68 -15 -119 0 -108 12 -122 97 -113 32 3 108
8 168 12 61 3 116 8 124 10 9 3 -10 20 -48 43 -35 22 -75 50 -89 64 -31 28
-116 84 -180 116 l-43 22 -14 -35z"/>
<path d="M9147 636 c-24 -18 -43 -21 -120 -22 -105 -1 -147 -15 -161 -56 -13
-38 4 -54 81 -78 83 -26 250 -29 259 -5 5 12 -21 174 -29 181 -1 1 -15 -8 -30
-20z"/>
<path d="M4225 621 c5 -15 -1 -22 -30 -31 -60 -20 -85 -103 -47 -150 22 -28
81 -39 210 -39 72 -1 100 -5 129 -21 21 -11 50 -20 65 -20 l27 0 -29 63 c-35
73 -36 90 -11 158 18 46 18 50 3 44 -75 -29 -186 -31 -243 -5 -58 26 -82 26
-74 1z"/>
<path d="M8450 584 c-56 -9 -89 -20 -98 -31 -7 -10 -31 -26 -54 -38 -85 -41
-67 -91 44 -125 56 -17 91 -21 155 -18 45 1 86 8 91 13 15 15 -29 217 -47 214
-3 -1 -44 -7 -91 -15z"/>
<path d="M1949 426 c-3 -3 -37 -6 -77 -8 -63 -2 -72 -4 -72 -21 0 -10 13 -32
29 -48 36 -35 81 -38 129 -9 28 17 33 25 30 53 -3 29 -25 47 -39 33z"/>
</g>
</svg>
